<?xml version="1.0" encoding="utf-8"?>
<svg viewBox="0 0 500 500" xmlns="http://www.w3.org/2000/svg">
  <g style="" transform="matrix(2.6533761024475098, 0, 0, 2.6533761024475098, -777.2908935546875, -217.51301574707034)">
    <path d="M 377.043 85.096 C 375.943 86.396 375.943 87.096 377.043 88.996 C 378.543 91.896 377.743 93.596 374.843 93.596 C 370.843 93.596 364.343 97.496 362.743 100.896 C 361.243 104.096 358.743 113.096 357.643 119.596 C 357.243 122.096 356.243 123.496 354.443 124.296 C 352.943 124.996 351.343 125.296 350.943 124.996 C 349.643 124.196 344.443 127.296 342.243 130.096 L 340.143 132.696 L 335.143 127.896 C 332.443 125.296 329.843 121.896 329.543 120.296 C 329.143 118.796 328.443 117.596 327.943 117.596 C 326.843 117.596 326.843 121.296 327.943 123.996 C 328.343 125.096 328.143 127.496 327.443 129.396 C 326.343 132.896 325.343 133.496 315.843 136.896 C 314.243 137.496 314.243 137.796 315.543 140.996 C 316.343 142.896 316.743 145.696 316.543 147.296 C 316.243 148.796 317.743 164.296 319.943 181.696 L 323.843 213.396 L 321.443 235.696 C 318.943 260.196 319.043 261.596 324.543 266.596 L 327.243 269.096 L 385.143 269.396 C 449.143 269.696 448.143 269.796 452.043 263.396 C 454.543 259.296 454.543 256.896 451.943 232.796 L 449.943 213.396 L 453.543 182.196 C 455.543 165.096 457.243 149.996 457.343 148.596 C 457.543 146.496 457.143 146.096 455.043 146.396 C 452.843 146.696 452.943 146.296 456.843 143.096 C 459.143 141.096 461.043 138.796 461.043 137.996 C 461.043 135.996 458.543 135.196 456.143 136.596 C 453.043 138.196 453.543 137.296 458.943 130.296 C 464.843 122.696 466.243 120.196 465.443 118.196 C 464.643 116.196 462.643 116.196 460.643 118.096 C 459.343 119.496 459.243 119.296 459.743 116.196 C 460.743 109.996 456.343 110.396 452.643 116.996 C 451.243 119.196 449.643 122.996 448.943 125.296 C 447.343 130.996 446.043 130.796 447.143 124.996 C 448.043 120.496 447.043 116.596 445.043 116.596 C 443.843 116.596 441.043 119.496 441.043 120.896 C 441.043 121.596 440.543 121.296 439.943 120.296 C 437.243 115.596 433.543 120.396 434.343 127.696 C 434.743 130.796 434.543 132.796 433.743 133.396 C 432.843 134.196 432.543 132.996 432.543 128.596 C 432.443 125.196 431.943 122.096 431.143 121.196 C 430.143 119.996 429.743 117.396 429.943 112.996 L 430.143 106.496 L 422.843 106.796 L 415.543 107.096 L 415.543 113.896 C 415.543 117.596 415.343 120.596 415.043 120.596 C 414.743 120.596 413.543 116.496 412.343 111.496 C 409.043 97.796 406.743 95.196 395.943 93.496 C 392.443 92.896 389.443 92.296 389.143 91.996 C 388.943 91.796 389.343 90.496 390.043 89.096 C 391.143 87.096 391.143 86.396 390.043 85.096 C 388.343 82.996 378.743 82.996 377.043 85.096 Z M 389.043 87.096 C 389.043 88.296 387.743 88.596 383.543 88.596 C 379.343 88.596 378.043 88.296 378.043 87.096 C 378.043 85.896 379.343 85.596 383.543 85.596 C 387.743 85.596 389.043 85.896 389.043 87.096 Z M 387.043 91.496 C 387.043 92.296 379.943 93.696 379.143 92.996 C 379.043 92.896 379.143 92.296 379.543 91.696 C 380.343 90.396 387.043 90.196 387.043 91.496 Z M 401.143 96.896 C 403.043 97.696 405.343 99.196 406.343 100.296 C 409.443 103.896 414.043 126.296 415.343 144.596 L 415.543 148.096 L 430.043 148.296 C 438.043 148.396 444.543 148.796 444.543 149.296 C 444.543 149.696 443.943 164.496 443.143 182.196 C 441.843 213.696 441.843 214.596 444.143 235.896 C 446.443 257.496 446.443 257.596 444.543 259.596 C 442.643 261.496 441.843 261.496 415.643 260.396 C 395.243 259.496 381.943 259.496 360.143 260.396 L 331.543 261.596 L 329.543 259.296 L 327.443 256.996 L 329.743 235.496 C 331.943 214.396 332.043 213.696 330.543 184.096 C 329.743 167.596 329.043 152.796 329.043 151.096 L 329.043 148.096 L 342.843 148.396 L 356.643 148.696 L 357.843 135.396 C 359.143 120.896 362.043 106.396 364.443 101.796 C 365.943 98.896 370.743 96.396 377.043 95.196 C 381.743 94.296 397.643 95.396 401.143 96.896 Z M 428.043 112.796 L 428.043 117.096 L 422.543 117.096 L 417.043 117.096 L 417.043 112.796 L 417.043 108.596 L 422.543 108.596 L 428.043 108.596 L 428.043 112.796 Z M 457.143 118.896 C 456.443 121.196 454.343 124.996 452.443 127.096 L 449.043 131.096 L 450.443 126.996 C 454.243 115.796 459.943 108.896 457.143 118.896 Z M 428.943 121.996 C 430.743 124.796 431.043 126.896 431.043 135.996 C 431.043 144.796 430.743 146.596 429.543 146.596 C 428.343 146.596 428.043 144.696 428.043 135.596 C 428.043 128.896 427.643 124.596 427.043 124.596 C 426.443 124.596 426.043 128.896 426.043 135.596 C 426.043 144.696 425.743 146.596 424.543 146.596 C 423.343 146.596 423.043 144.496 422.843 134.796 L 422.643 123.096 L 422.343 134.796 C 422.043 144.396 421.743 146.596 420.543 146.596 C 419.343 146.596 419.043 144.596 419.043 135.596 C 419.043 123.296 417.143 119.896 416.943 131.796 L 416.743 139.096 L 415.943 131.596 C 414.943 121.596 416.543 118.596 422.643 118.596 C 426.343 118.596 427.143 118.996 428.943 121.996 Z M 444.343 128.996 C 441.443 140.696 438.643 146.596 436.143 146.596 C 434.143 146.596 434.143 146.596 436.043 142.196 C 437.043 139.696 438.943 134.396 440.043 130.396 C 443.443 119.196 443.943 118.096 445.243 119.396 C 446.143 120.296 445.843 122.696 444.343 128.996 Z M 463.843 119.596 C 463.043 122.196 450.343 138.496 448.143 139.896 C 446.743 140.796 444.443 142.296 443.043 143.296 C 440.543 145.096 440.543 145.096 442.043 142.996 C 445.943 137.496 462.343 118.596 463.243 118.596 C 463.743 118.596 464.043 118.996 463.843 119.596 Z M 439.143 123.596 C 439.543 125.796 437.943 132.496 436.943 133.196 C 435.943 133.796 435.743 122.296 436.743 121.196 C 437.543 120.396 438.743 121.596 439.143 123.596 Z M 356.743 126.196 C 356.443 126.496 355.543 126.596 354.843 126.296 C 354.043 125.996 354.343 125.696 355.443 125.696 C 356.543 125.596 357.143 125.896 356.743 126.196 Z M 337.443 133.396 C 338.843 136.196 340.243 146.596 339.143 146.596 C 338.843 146.596 337.143 142.696 335.543 137.996 C 333.943 133.296 332.243 129.196 331.843 128.996 C 330.443 128.096 330.943 130.296 334.043 138.496 L 336.943 146.596 L 334.543 146.596 C 330.343 146.596 327.443 138.096 329.243 130.896 L 330.243 126.596 L 333.143 128.696 C 334.743 129.796 336.643 131.996 337.443 133.396 Z M 347.043 130.396 C 343.543 133.796 343.043 134.796 343.043 138.896 C 343.043 141.396 343.543 143.796 344.043 144.096 C 345.543 144.996 345.243 146.596 343.643 146.596 C 341.843 146.596 341.043 144.396 341.043 138.896 C 341.043 134.996 341.543 133.896 344.943 130.496 C 347.043 128.296 349.343 126.596 349.943 126.596 C 350.643 126.596 349.343 128.296 347.043 130.396 Z M 354.243 128.996 C 348.843 130.896 346.043 134.196 346.143 138.496 L 346.343 142.096 L 346.943 138.596 C 347.443 135.896 348.143 134.996 349.843 134.796 C 351.143 134.596 352.843 134.996 353.743 135.796 C 355.143 136.896 355.243 136.896 354.843 135.596 C 354.643 134.796 353.043 133.896 351.443 133.596 L 348.543 132.996 L 351.843 131.196 C 353.743 130.296 355.443 129.696 355.643 129.896 C 355.943 130.096 355.843 133.996 355.443 138.496 L 354.743 146.696 L 351.143 146.396 C 348.143 146.196 347.243 145.496 345.643 142.596 C 343.943 139.296 343.943 138.796 345.343 135.396 C 347.043 131.396 352.143 127.596 355.543 127.696 C 356.943 127.696 356.443 128.096 354.243 128.996 Z M 445.543 135.396 C 444.543 136.396 443.943 136.596 444.243 136.096 C 444.543 135.496 445.043 134.196 445.543 133.096 C 446.043 131.696 446.443 131.496 446.743 132.396 C 447.043 133.196 446.443 134.496 445.543 135.396 Z M 434.043 141.696 L 432.043 146.096 L 432.643 142.096 C 432.943 139.896 433.743 137.196 434.343 136.096 C 436.443 132.296 436.243 136.996 434.043 141.696 Z M 327.243 139.296 C 327.543 141.396 328.043 143.896 328.443 144.796 C 329.143 146.396 328.643 146.596 324.243 146.596 C 319.843 146.596 319.243 146.296 318.643 144.196 C 318.343 142.896 317.843 141.096 317.443 140.296 C 317.143 139.296 318.143 138.396 320.743 137.296 C 326.243 134.996 326.743 135.196 327.243 139.296 Z M 454.543 142.096 C 450.743 145.596 448.843 146.596 446.243 146.596 C 443.343 146.596 442.943 146.396 444.043 145.096 C 445.343 143.496 456.743 137.596 458.443 137.596 C 459.043 137.696 457.343 139.696 454.543 142.096 Z M 327.043 152.996 C 327.043 155.196 327.743 169.896 328.543 185.596 C 329.943 213.596 329.843 214.496 327.643 235.596 C 325.143 258.096 325.243 259.396 329.443 262.096 C 331.443 263.396 335.143 263.496 359.643 262.396 C 380.843 261.496 394.343 261.496 415.043 262.396 C 439.243 263.396 442.743 263.296 444.843 261.996 C 446.143 261.196 447.443 259.696 447.743 258.796 C 448.143 257.896 447.343 247.296 446.143 235.296 C 443.943 214.196 443.843 212.296 445.043 181.696 C 445.643 164.296 446.343 149.596 446.543 149.096 C 446.643 148.496 448.843 148.196 451.443 148.396 C 453.943 148.596 455.843 149.096 455.643 149.496 C 455.343 149.796 453.543 164.296 451.543 181.596 L 447.843 213.096 L 449.943 233.096 C 452.743 259.396 452.743 259.796 449.143 263.796 L 446.243 267.096 L 387.243 267.096 C 329.643 267.096 328.243 267.096 326.043 265.096 C 321.243 260.896 321.143 258.896 323.643 235.096 L 325.943 213.096 L 322.043 181.396 C 319.843 163.896 318.043 149.296 318.043 148.796 C 318.043 148.396 320.043 148.196 322.543 148.396 L 327.043 148.796 L 327.043 152.996 Z" fill="#000000" stroke="none"/>
    <path d="M 373.743 98.996 C 371.043 99.696 368.443 100.796 367.843 101.396 C 365.443 103.796 362.943 118.396 362.343 133.296 L 361.743 148.596 L 386.043 148.596 L 410.343 148.596 L 409.743 133.796 C 409.143 117.696 406.543 104.696 403.443 101.496 C 399.743 97.796 383.243 96.496 373.743 98.996 Z M 388.443 103.296 C 389.043 106.796 394.043 145.496 394.043 146.296 C 394.043 146.496 388.943 146.596 382.743 146.596 L 371.343 146.596 L 374.643 123.796 C 376.543 111.296 378.043 100.796 378.043 100.296 C 378.043 99.896 380.243 99.596 382.943 99.596 C 387.843 99.596 387.843 99.596 388.443 103.296 Z M 399.243 102.496 C 400.443 103.596 401.843 109.096 403.843 120.696 L 406.743 137.296 L 403.843 138.396 L 401.043 139.396 L 401.043 127.996 L 401.043 116.596 L 396.643 116.596 L 392.243 116.596 L 391.643 110.796 C 391.243 107.696 390.743 103.796 390.443 102.296 C 389.843 99.496 389.943 99.496 393.743 100.196 C 395.843 100.496 398.343 101.596 399.243 102.496 Z M 375.743 102.796 C 375.443 104.096 374.443 110.796 373.443 117.796 L 371.643 130.596 L 368.843 127.896 C 367.343 126.396 366.043 124.596 366.043 123.796 C 366.043 119.696 370.543 104.096 372.143 102.496 C 374.743 99.896 376.343 100.096 375.743 102.796 Z M 406.443 116.796 C 408.143 126.596 409.143 136.096 408.443 135.396 C 408.143 135.096 407.043 129.196 406.043 122.196 C 404.943 115.296 403.843 108.396 403.543 106.896 C 403.043 104.396 403.043 104.296 403.943 106.296 C 404.543 107.596 405.643 112.296 406.443 116.796 Z M 399.043 132.596 C 399.043 144.396 398.843 146.596 397.543 146.596 C 396.743 146.596 396.043 145.796 395.943 144.796 C 395.943 143.896 395.143 137.596 394.143 130.796 L 392.443 118.596 L 395.743 118.596 L 399.043 118.596 L 399.043 132.596 Z M 369.043 130.796 C 370.443 133.196 370.843 135.096 370.443 138.996 C 369.743 145.996 369.443 146.596 366.543 146.596 C 364.243 146.596 364.043 146.196 364.043 142.196 C 364.043 137.796 365.143 136.096 368.343 135.496 C 370.043 135.096 370.043 134.796 367.643 131.296 C 366.243 129.296 365.543 127.596 366.043 127.596 C 366.643 127.596 367.943 128.996 369.043 130.796 Z M 367.043 132.496 C 367.743 133.996 367.543 134.496 366.043 134.896 C 364.343 135.296 364.043 134.896 364.043 132.396 C 364.043 129.296 365.343 129.396 367.043 132.496 Z M 407.443 141.196 C 408.943 145.096 408.143 146.596 404.543 146.596 C 401.443 146.596 401.043 146.296 401.043 144.096 C 401.043 142.396 401.743 141.196 403.343 140.596 C 406.443 139.396 406.743 139.396 407.443 141.196 Z" fill="#000000" stroke="none"/>
    <path d="M 362.243 155.196 C 361.043 155.996 360.043 157.796 360.043 158.996 C 360.043 164.396 367.743 165.396 369.543 160.196 C 370.343 157.796 370.143 157.096 368.143 155.496 C 365.343 153.196 365.043 153.196 362.243 155.196 Z M 367.043 157.096 C 368.843 159.196 367.543 161.796 364.843 161.396 C 362.243 161.096 361.143 157.796 363.243 156.496 C 365.043 155.296 365.643 155.396 367.043 157.096 Z" fill="#000000" stroke="none"/>
    <path d="M 404.743 155.396 C 401.143 159.296 403.543 163.996 408.743 163.396 C 410.743 163.196 411.743 162.296 412.543 160.196 C 413.343 157.796 413.143 157.096 411.143 155.496 C 408.243 153.096 406.843 153.096 404.743 155.396 Z M 410.043 157.096 C 411.843 159.196 410.543 161.796 407.843 161.396 C 405.243 161.096 404.143 157.796 406.243 156.496 C 408.043 155.296 408.643 155.396 410.043 157.096 Z" fill="#000000" stroke="none"/>
    <path d="M 295.543 262.596 C 295.143 263.196 299.043 263.596 306.543 263.596 C 314.043 263.596 317.943 263.196 317.543 262.596 C 317.243 261.996 312.343 261.596 306.543 261.596 C 300.743 261.596 295.843 261.996 295.543 262.596 Z" fill="#000000" stroke="none"/>
    <path d="M 456.543 262.596 C 456.143 263.196 459.843 263.596 466.943 263.596 C 473.643 263.596 478.043 263.196 478.043 262.596 C 478.043 261.996 473.943 261.596 467.643 261.596 C 461.743 261.596 456.843 261.996 456.543 262.596 Z" fill="#000000" stroke="none"/>
  </g>
</svg>