<?xml version="1.0" encoding="utf-8"?>
<svg viewBox="0 0 500 500" xmlns="http://www.w3.org/2000/svg">
  <path d="M 220.865 131.793 C 176.593 138.906 129.528 158.011 90.242 184.431 C 70.497 197.845 33.205 234.427 25.627 247.841 C 22.835 252.922 19.644 261.661 18.647 267.149 C 14.659 288.489 12.066 292.35 12.066 292.35 L 10.271 299.87 C 9.274 304.139 8.476 312.471 8.476 318.162 L 8.476 328.933 L 7.878 332.997 L 9.075 343.769 C 10.87 358.402 17.051 376.084 24.23 387.058 L 30.214 396 C 30.214 396 36.595 400.878 38.391 403.114 C 40.584 405.756 46.566 411.041 49.559 413.276 C 52.948 415.918 61.126 420.39 75.483 427.096 C 93.831 435.633 127.335 444.981 159.044 450.266 C 190.553 455.549 277.304 455.549 308.614 450.266 C 341.718 444.575 381.805 433.6 407.131 423.032 C 407.131 423.032 434.453 408.805 438.441 406.366 C 443.028 403.521 459.381 388.278 459.381 388.278 C 464.965 381.978 470.948 373.848 472.743 370.19 C 475.335 364.499 480.719 355.15 481.916 350.678 C 486.304 334.827 487.5 323.649 486.902 301.292 L 486.104 276.091 L 484.509 271.009 L 481.916 260.849 C 480.321 255.158 478.128 246.012 476.931 240.524 C 473.741 226.298 467.159 215.324 453.797 202.925 C 423.085 174.269 366.846 146.832 315.993 135.654 C 293.857 130.979 240.411 128.743 220.865 131.793 Z M 291.863 139.109 C 299.041 140.329 299.24 140.532 300.038 151.304 C 300.637 157.604 303.43 167.156 307.018 174.472 C 311.605 184.025 312.404 186.667 309.811 186.259 C 306.021 185.448 296.05 165.936 294.456 155.571 C 293.658 151.506 292.46 147.645 291.663 147.035 C 288.672 145.206 294.256 167.766 298.843 176.302 C 304.027 186.056 304.626 187.48 301.833 185.65 C 297.845 183.414 272.318 188.902 260.552 194.796 C 251.379 199.268 246.792 200.487 241.407 199.673 C 235.025 198.455 234.227 197.642 233.231 190.934 C 231.636 179.147 224.057 160.855 216.678 151.101 C 209.298 141.142 208.901 141.548 223.858 139.312 C 232.233 137.889 284.085 137.889 291.863 139.109 Z M 324.967 145.816 C 340.921 149.88 378.813 163.091 381.006 165.326 C 381.604 165.936 381.604 166.546 381.206 166.749 C 380.807 167.156 377.814 168.782 374.425 170.611 C 367.844 174.472 358.471 186.87 356.477 194.796 C 355.479 198.251 357.075 196.829 361.063 190.731 C 364.253 185.65 370.636 178.335 375.024 174.675 C 382.202 168.985 384.396 168.172 389.781 169.595 L 396.362 171.018 L 387.986 174.675 C 378.413 178.741 364.054 192.763 359.469 201.909 C 357.872 205.364 356.477 208.414 356.078 208.819 C 355.679 209.632 340.522 197.845 329.554 187.683 C 324.768 183.212 322.175 181.382 324.169 183.82 C 328.756 189.309 328.557 191.341 323.572 188.698 C 319.183 186.259 304.626 156.791 302.632 146.426 C 301.435 140.329 301.634 139.719 304.825 140.532 C 307.018 141.142 315.993 143.581 324.967 145.816 Z M 212.889 150.693 C 218.672 161.058 224.856 178.13 226.85 190.324 L 228.245 198.861 L 221.265 198.861 C 211.094 198.861 189.955 205.975 179.784 212.885 L 171.01 218.981 L 169.813 213.493 C 167.021 200.284 153.858 179.553 143.489 172.033 C 137.904 167.969 138.104 168.579 145.882 178.538 C 154.656 189.919 163.032 204.754 161.437 206.178 C 160.838 206.787 158.445 203.941 156.052 200.08 C 150.867 191.544 137.506 179.756 128.332 175.896 L 121.949 173.05 L 133.716 167.766 C 154.258 158.416 198.53 142.563 206.308 142.158 C 207.105 141.955 210.097 145.816 212.889 150.693 Z M 418.698 185.65 C 428.67 191.952 437.644 197.845 438.241 198.861 C 439.04 200.08 436.845 200.894 433.257 200.894 C 424.88 200.894 409.125 209.429 402.345 217.559 C 399.155 221.217 394.966 228.331 392.773 233.209 L 388.983 241.948 L 385.594 236.053 C 382.003 230.363 372.032 219.997 364.852 214.714 C 361.463 212.071 361.861 211.258 368.84 200.894 C 376.021 190.731 393.969 174.472 398.356 174.472 C 399.354 174.472 408.527 179.553 418.698 185.65 Z M 131.522 183.82 C 145.083 192.56 163.431 211.462 165.026 217.761 C 166.024 221.217 164.427 224.469 159.044 230.566 C 155.056 234.834 150.27 241.133 148.674 244.59 C 141.495 258.41 135.91 263.897 128.73 263.897 C 125.141 263.897 118.361 265.725 114.172 267.961 L 106.195 272.027 L 106.195 258.41 C 106.195 240.93 101.808 219.997 95.227 205.567 C 92.436 199.268 90.242 193.983 90.242 193.577 C 90.242 192.56 116.965 176.504 118.76 176.504 C 119.558 176.504 125.341 179.756 131.522 183.82 Z M 324.569 197.032 C 330.75 199.47 338.728 203.739 342.118 206.787 C 345.708 209.836 352.688 214.714 357.673 217.761 C 377.417 229.143 390.579 250.686 388.983 268.367 C 387.588 281.579 384.396 284.423 371.234 284.83 C 363.856 285.237 358.072 286.659 352.887 290.114 C 343.115 296.212 333.543 309.624 333.543 317.145 C 333.543 325.274 328.557 324.259 323.77 315.112 C 319.782 307.593 324.569 297.431 338.13 283.814 C 344.91 277.31 351.89 269.385 353.884 266.336 C 357.872 260.035 358.671 245.605 355.279 238.899 C 351.691 231.988 343.115 223.249 339.724 223.249 C 337.73 223.249 338.329 224.874 341.918 228.737 C 348.898 236.46 351.49 242.151 351.49 249.67 C 351.49 258.41 348.898 262.677 334.739 278.327 C 315.594 299.464 313.799 301.7 311.605 307.39 C 310.209 311.048 310.209 314.096 311.605 316.332 C 313.201 319.177 313.6 318.567 313.6 313.689 C 313.799 310.235 314.795 305.764 315.794 303.528 C 317.189 300.276 317.388 300.682 316.591 305.56 C 315.993 309.016 316.792 314.096 318.386 317.348 C 321.378 322.835 321.378 323.038 306.021 338.079 C 288.073 355.76 281.093 358.402 269.726 351.899 C 264.541 349.256 261.55 348.647 259.355 349.866 C 254.17 353.321 242.405 349.663 237.019 342.957 C 231.037 335.843 230.438 328.729 235.025 314.909 C 237.818 305.967 237.818 303.934 235.025 292.96 C 229.442 271.62 232.034 249.873 242.005 231.378 L 245.794 224.266 L 239.812 231.378 C 236.42 235.24 232.633 241.948 231.436 246.215 C 230.239 250.28 228.844 253.329 228.245 252.922 C 226.649 251.093 232.233 237.679 238.017 229.549 C 245.196 219.184 242.405 218.575 233.83 228.737 C 220.468 244.183 218.273 259.832 225.852 283.408 C 228.444 290.927 230.438 300.479 230.639 304.544 C 231.037 320.397 220.468 329.34 207.105 324.868 C 197.134 321.616 196.935 317.959 205.909 310.642 C 215.283 303.121 215.881 299.057 209.698 278.936 C 204.713 262.474 204.514 254.344 208.502 246.215 C 211.891 239.915 224.655 227.313 227.846 227.313 C 228.844 227.313 234.227 223.249 239.612 218.371 C 259.554 200.284 276.308 193.17 300.038 192.967 C 309.213 192.763 316.99 194.186 324.569 197.032 Z M 92.236 210.445 C 95.028 219.184 97.023 233.615 98.019 249.67 C 99.017 263.693 99.414 275.278 99.216 275.481 C 99.216 275.888 93.233 270.198 86.053 263.288 C 78.276 255.564 67.906 247.841 59.33 243.572 C 51.752 239.712 44.972 236.256 44.572 236.053 C 44.173 235.647 44.972 234.021 46.566 232.191 C 50.755 226.907 84.857 196.829 86.652 196.829 C 87.45 196.829 90.042 202.925 92.236 210.445 Z M 453.797 212.681 C 464.766 224.671 469.154 233.209 469.154 241.948 C 469.154 250.686 454.195 265.116 423.883 285.644 C 402.345 300.072 400.948 300.682 398.157 297.228 C 396.562 294.992 395.763 290.927 396.362 287.472 C 396.96 284.22 397.36 279.14 397.36 275.888 C 397.36 271.009 399.553 268.367 410.921 259.832 C 426.077 248.451 444.823 238.491 456.39 235.647 L 464.168 233.817 L 456.589 233.615 C 452.401 233.412 444.025 235.24 437.844 237.476 C 431.66 239.712 425.877 240.93 425.079 240.322 C 424.082 239.712 423.484 241.133 424.082 241.744 C 424.482 242.151 418.897 246.621 411.718 251.296 C 399.354 259.628 398.954 259.832 402.345 254.344 C 414.51 234.834 427.672 223.859 445.82 218.168 L 454.195 215.324 L 446.618 215.324 C 431.263 214.917 409.524 230.159 399.354 248.451 C 392.573 260.238 391.576 256.783 397.161 241.541 C 402.743 226.501 411.718 216.135 425.678 209.226 C 432.458 205.772 439.438 202.925 441.233 202.925 C 443.227 202.925 448.812 207.397 453.797 212.681 Z M 241.806 206.584 C 241.806 209.226 229.242 220.607 224.655 222.031 C 219.669 223.656 208.502 234.427 203.516 242.557 C 198.73 250.686 198.929 266.132 203.915 280.766 C 209.298 296.618 209.1 300.682 201.921 305.56 C 198.53 307.796 195.34 311.657 194.742 314.299 C 193.943 317.348 192.348 318.567 190.155 317.959 C 188.36 317.348 182.775 316.332 177.591 315.52 C 168.816 314.299 168.018 313.689 168.018 308.609 C 168.018 305.56 170.611 299.464 173.801 294.992 C 176.992 290.522 180.98 284.017 182.775 280.562 C 186.764 272.635 186.963 255.768 182.974 250.483 C 180.182 246.826 180.182 247.029 181.181 253.125 C 183.175 263.693 180.382 272.635 171.01 287.472 C 165.624 295.804 162.036 303.731 162.036 307.186 C 162.036 313.487 163.232 313.689 143.089 306.577 L 133.118 303.121 L 133.516 293.569 C 134.115 273.449 154.656 245.605 171.01 242.354 C 175.795 241.541 177.591 240.322 176.394 239.102 C 174.998 237.679 172.206 237.679 167.819 239.305 C 164.229 240.524 161.038 241.133 160.639 240.727 C 160.24 240.322 164.229 236.053 169.614 230.973 C 180.98 220.81 199.727 210.039 211.094 207.193 C 221.066 204.958 241.806 204.348 241.806 206.584 Z M 74.287 259.222 C 86.053 270.198 99.414 285.847 98.019 287.269 C 96.424 288.691 43.375 276.091 39.188 276.497 C 33.005 276.905 103.803 293.162 106.594 295.601 C 117.363 305.967 150.27 318.364 178.588 322.835 C 187.163 324.259 197.533 327.104 201.521 329.34 C 209.298 333.404 217.277 334.014 221.864 331.168 C 224.057 329.543 225.253 330.965 227.247 336.655 C 228.444 340.721 229.442 344.175 229.242 344.378 C 229.043 344.582 217.077 343.972 202.52 342.957 C 151.864 339.5 109.586 330.965 80.07 317.959 C 64.714 311.048 43.575 297.635 38.391 291.334 C 36.794 289.301 36.396 287.065 35.797 287.472 C 33.803 289.504 24.431 275.481 24.431 270.198 C 24.431 265.116 32.806 249.264 39.787 241.133 C 42.778 237.679 43.575 237.883 52.749 242.963 C 57.934 245.808 67.706 253.125 74.287 259.222 Z M 477.928 269.385 C 479.723 279.343 481.118 296.007 481.118 306.577 C 481.118 340.721 472.743 362.264 451.405 383.807 C 431.859 403.521 403.143 417.138 355.679 429.535 C 273.715 450.672 190.155 451.281 114.172 431.161 C 43.575 412.666 14.259 381.165 14.458 324.259 C 14.659 310.235 18.647 283.408 21.039 280.969 C 21.638 280.359 23.633 282.187 25.627 285.237 C 29.815 291.74 47.565 305.764 62.322 314.096 C 97.023 333.81 147.277 345.599 209.298 348.647 C 223.858 349.256 236.621 350.882 237.219 351.899 C 239.014 354.744 177.989 352.305 153.659 348.443 C 105.198 340.721 76.88 329.949 36.396 303.325 C 33.604 301.496 34.601 302.918 38.789 306.779 C 54.145 321.21 86.452 337.469 114.771 344.988 C 147.277 353.525 188.559 356.98 238.814 355.556 C 249.584 355.15 265.339 356.98 269.127 359.216 C 279.099 364.499 295.652 359.825 304.426 349.053 C 307.617 345.191 312.801 342.346 320.979 340.314 C 327.56 338.485 336.734 335.64 341.718 333.81 C 349.896 330.965 354.283 329.949 370.636 328.323 C 382.003 327.104 396.362 319.787 427.672 299.261 C 443.627 288.691 469.154 266.742 469.154 263.288 C 469.154 262.067 465.364 264.71 460.776 269.181 C 455.99 273.652 448.613 280.359 444.225 283.814 C 435.649 290.317 404.14 310.642 402.345 310.642 C 401.747 310.642 401.348 309.218 401.348 307.593 C 401.348 305.967 402.146 304.544 402.944 304.544 C 407.131 304.544 447.814 275.481 459.182 264.303 C 466.361 257.393 472.743 251.906 473.341 251.703 C 474.138 251.703 476.133 259.628 477.928 269.385 Z M 132.121 271.417 C 131.922 272.433 130.725 275.278 129.13 278.123 C 127.534 280.969 126.139 285.44 126.139 288.286 C 125.939 298.65 123.347 299.667 113.175 292.96 L 104.002 286.862 L 110.584 281.172 C 119.558 273.449 132.321 267.759 132.121 271.417 Z M 386.989 294.382 C 394.767 298.04 399.354 303.934 392.174 301.089 C 389.381 300.072 389.381 300.479 391.576 304.139 C 393.769 307.593 393.57 309.421 391.377 314.096 L 388.783 319.787 L 387.387 311.86 C 386.59 307.186 383.998 302.106 381.405 300.072 C 375.024 294.789 373.826 297.228 379.212 304.544 C 381.604 307.999 382.601 310.642 381.405 310.642 C 380.407 310.642 379.012 312.877 378.214 315.723 C 376.419 323.445 369.439 322.633 369.439 314.706 C 369.439 310.438 367.844 307.593 364.454 305.357 C 357.673 300.886 355.08 303.731 361.463 308.609 C 365.85 312.063 366.049 312.471 362.858 313.689 C 360.864 314.502 359.469 317.348 359.469 320.194 C 359.469 324.868 358.87 325.274 353.285 324.055 C 349.896 323.445 344.71 322.835 342.118 322.835 C 337.73 322.835 337.331 322.226 338.528 317.145 C 340.323 309.421 349.297 298.65 357.474 294.179 C 366.249 289.301 376.22 289.301 386.989 294.382 Z M 335.537 329.745 C 335.537 330.965 316.99 337.061 315.993 336.249 C 314.597 334.827 326.362 329.137 331.149 328.933 C 333.543 328.933 335.537 329.34 335.537 329.745 Z" fill="#000000" stroke="none" style=""/>
  <path d="M 229.84 159.23 C 229.84 159.84 232.034 168.172 234.826 177.927 C 240.011 196.016 243.401 203.333 240.808 190.731 C 237.419 174.675 229.84 152.726 229.84 159.23 Z" fill="#000000" stroke="none" style=""/>
  <path d="M 289.669 221.217 C 289.669 228.331 294.256 229.549 297.646 223.453 C 301.036 216.95 299.839 215.729 295.451 221.217 L 291.264 226.298 L 292.46 220.607 C 293.258 217.559 292.859 215.12 291.663 215.12 C 290.666 215.12 289.669 217.761 289.669 221.217 Z" fill="#000000" stroke="none" style=""/>
  <path d="M 237.818 269.791 C 237.818 272.839 243.202 276.294 250.381 277.514 C 254.768 278.123 258.159 280.156 259.355 283.001 C 261.349 286.862 261.55 286.862 261.55 280.969 C 261.749 272.433 256.365 267.961 246.194 267.961 C 241.607 267.961 237.818 268.775 237.818 269.791 Z" fill="#000000" stroke="none" style=""/>
  <path d="M 297.845 283.408 C 295.451 286.456 293.658 289.708 293.658 290.522 C 293.658 293.569 297.047 292.553 298.444 289.301 C 299.24 287.065 302.632 286.252 310.409 286.252 C 323.172 286.252 326.362 283.611 317.189 280.359 C 307.418 276.905 302.233 277.717 297.845 283.408 Z" fill="#000000" stroke="none" style=""/>
  <path d="M 254.369 326.088 C 250.182 327.916 251.379 336.046 256.365 340.721 C 261.749 346.004 265.936 346.208 273.515 342.143 C 281.292 338.079 282.689 333.607 277.105 330.152 C 272.118 326.901 258.159 324.462 254.369 326.088 Z" fill="#000000" stroke="none" style=""/>
  <path d="M 61.324 237.273 C 64.714 239.305 73.09 246.215 79.871 252.719 C 93.631 265.725 97.023 265.32 83.859 252.312 C 74.287 243.166 60.926 233.412 57.535 233.412 C 56.339 233.412 58.133 235.037 61.324 237.273 Z" fill="#000000" stroke="none" style=""/>
  <path d="M 471.546 281.375 C 470.948 294.586 462.771 320.397 454.396 336.046 C 449.409 344.988 440.237 356.777 429.467 367.955 C 415.706 381.775 413.712 384.619 419.296 381.775 C 426.675 377.912 440.834 363.686 450.008 350.678 C 463.768 331.576 474.338 298.65 472.543 281.172 L 471.746 273.042 L 471.546 281.375 Z" fill="#000000" stroke="none" style=""/>
  <path d="M 363.057 330.965 C 361.263 332.184 349.297 336.249 336.136 340.111 C 323.172 343.972 314.597 347.021 316.792 347.224 C 319.183 347.224 328.557 344.988 337.73 342.346 C 355.878 337.061 374.226 329.34 369.439 329.137 C 367.844 329.137 365.052 329.949 363.057 330.965 Z" fill="#000000" stroke="none" style=""/>
  <path d="M 33.405 353.321 C 35.2 356.37 51.752 367.548 54.544 367.548 C 55.94 367.548 51.952 363.89 45.569 359.418 C 34.004 351.086 31.211 349.663 33.405 353.321 Z" fill="#000000" stroke="none" style=""/>
  <path d="M 38.391 384.011 C 38.391 387.465 63.12 404.74 79.272 412.463 C 136.109 439.493 235.425 448.842 302.632 433.193 C 310.409 431.364 315.394 429.535 314.199 429.128 C 312.801 428.519 307.018 429.128 301.634 430.348 C 280.096 435.022 235.225 437.258 206.907 434.818 C 137.705 428.925 83.261 413.276 48.96 389.294 C 43.177 385.229 38.391 382.993 38.391 384.011 Z" fill="#000000" stroke="none" style=""/>
  <path d="M 400.35 397.22 C 388.385 403.114 370.835 410.43 361.662 413.479 C 352.488 416.528 345.708 419.373 346.904 419.78 C 352.887 421.811 409.125 399.659 420.093 390.92 C 427.871 384.823 421.69 386.653 400.35 397.22 Z" fill="#000000" stroke="none" style=""/>
</svg>