<?xml version="1.0" standalone="no"?>
<!DOCTYPE svg PUBLIC "-//W3C//DTD SVG 20010904//EN"
 "http://www.w3.org/TR/2001/REC-SVG-20010904/DTD/svg10.dtd">
<svg version="1.0" xmlns="http://www.w3.org/2000/svg"
 width="300.000000pt" height="300.000000pt" viewBox="0 0 300.000000 300.000000"
 preserveAspectRatio="xMidYMid meet">
<metadata>
Created by potrace 1.10, written by Peter Selinger 2001-2011
</metadata>
<g transform="translate(0.000000,300.000000) scale(0.100000,-0.100000)"
fill="#000000" stroke="none">
<path d="M1498 2710 c-4 -14 -8 -66 -8 -116 0 -121 -9 -184 -26 -184 -11 0
-14 -22 -14 -98 l0 -98 -31 -23 c-38 -28 -71 -100 -67 -144 3 -30 1 -32 -29
-31 -32 2 -33 1 -33 -37 0 -35 -3 -39 -25 -39 l-25 0 0 -185 0 -185 -94 0 -94
0 0 45 c0 25 4 45 9 45 5 0 9 11 9 25 0 19 -5 25 -22 25 -13 0 -44 21 -76 53
l-53 52 -47 -53 c-26 -29 -55 -52 -65 -52 -15 0 -16 -7 -11 -70 7 -67 6 -70
-15 -70 -20 0 -21 -3 -21 -145 l0 -145 -46 0 -45 0 3 -165 3 -165 -67 0 -68 0
0 -65 0 -65 960 0 960 0 0 65 0 65 -70 0 -71 0 3 165 3 165 -45 0 -45 0 3 145
3 145 -23 0 c-21 0 -24 4 -23 45 0 25 3 45 8 45 4 0 7 11 7 25 0 15 -6 25 -14
25 -8 0 -37 24 -65 53 l-50 52 -53 -52 c-38 -38 -61 -53 -81 -53 -22 0 -27 -4
-27 -25 0 -14 5 -25 10 -25 6 0 10 -20 10 -45 l0 -45 -95 0 -95 0 0 185 0 185
-24 0 c-20 0 -23 4 -22 38 1 36 0 37 -31 34 l-33 -3 0 53 c0 61 -26 112 -65
130 -24 11 -25 14 -25 119 0 92 -2 108 -15 103 -11 -5 -15 2 -16 27 -6 178
-15 290 -21 269z m22 -413 c0 -76 -2 -83 -20 -83 -18 0 -20 7 -20 83 0 76 2
83 20 83 18 0 20 -7 20 -83z m30 -132 c37 -19 60 -62 60 -112 l0 -38 -111 0
-111 0 4 54 c4 45 10 59 37 83 36 32 76 36 121 13z m120 -205 c0 -19 -7 -20
-175 -20 -168 0 -175 1 -175 20 0 19 7 20 175 20 168 0 175 -1 175 -20z m-330
-550 l0 -490 60 0 60 0 0 490 0 490 35 0 35 0 0 -490 0 -490 65 0 66 0 -3 490
-3 490 33 0 32 0 -2 -500 -3 -501 -218 -2 -217 -2 0 503 0 502 30 0 30 0 0
-490z m90 15 l0 -475 -30 0 -30 0 0 475 0 475 30 0 30 0 0 -475z m193 3 l-2
-473 -31 -3 -30 -3 0 475 0 476 33 0 32 0 -2 -472z m-670 304 l27 -28 -55 0
c-30 1 -55 3 -55 5 0 7 43 51 50 51 3 0 18 -13 33 -28z m1154 6 c13 -12 23
-24 23 -27 0 -3 -25 -6 -55 -7 l-55 0 27 28 c15 15 29 28 32 28 2 0 15 -10 28
-22z m-1217 -123 c0 -43 -1 -45 -30 -45 -29 0 -30 2 -30 45 0 43 1 45 30 45
29 0 30 -2 30 -45z m90 0 c0 -43 -1 -45 -30 -45 -29 0 -30 2 -30 45 0 43 1 45
30 45 29 0 30 -2 30 -45z m50 0 c0 -33 -4 -45 -15 -45 -11 0 -15 12 -15 45 0
33 4 45 15 45 11 0 15 -12 15 -45z m970 0 c0 -33 -4 -45 -15 -45 -11 0 -15 12
-15 45 0 33 4 45 15 45 11 0 15 -12 15 -45z m80 0 c0 -43 -1 -45 -30 -45 -29
0 -30 2 -30 45 0 43 1 45 30 45 29 0 30 -2 30 -45z m80 0 c0 -41 -2 -45 -25
-45 -23 0 -25 4 -25 45 0 41 2 45 25 45 23 0 25 -4 25 -45z m-1010 -110 l0
-25 -175 0 -175 0 0 25 0 25 175 0 175 0 0 -25z m50 0 c0 -16 -6 -25 -15 -25
-9 0 -15 9 -15 25 0 16 6 25 15 25 9 0 15 -9 15 -25z m580 0 c0 -16 -6 -25
-15 -25 -9 0 -15 9 -15 25 0 16 6 25 15 25 9 0 15 -9 15 -25z m50 0 c0 -16 -6
-25 -15 -25 -9 0 -15 9 -15 25 0 16 6 25 15 25 9 0 15 -9 15 -25z m370 0 l0
-25 -175 0 -175 0 0 25 0 25 175 0 175 0 0 -25z m-990 -332 l0 -278 -320 0
c-249 0 -320 3 -320 13 0 9 30 12 115 12 l115 0 0 265 0 265 205 0 205 0 0
-277z m990 12 l0 -265 116 0 c82 0 115 -3 112 -11 -3 -9 -91 -11 -322 -10
l-318 1 -1 275 -2 275 208 0 207 0 0 -265z m-1440 -90 l0 -145 -25 0 -25 0 0
145 0 145 25 0 25 0 0 -145z m1530 0 l0 -145 -27 0 -28 0 0 145 0 145 28 0 27
0 0 -145z m140 -235 c0 -7 -317 -10 -930 -10 -613 0 -930 3 -930 10 0 7 317
10 930 10 613 0 930 -3 930 -10z"/>
<path d="M840 1390 c0 -16 7 -20 35 -20 28 0 35 4 35 20 0 16 -7 20 -35 20
-28 0 -35 -4 -35 -20z"/>
<path d="M960 1390 c0 -16 7 -20 35 -20 28 0 35 4 35 20 0 16 -7 20 -35 20
-28 0 -35 -4 -35 -20z"/>
<path d="M1080 1390 c0 -17 7 -20 40 -20 33 0 40 3 40 20 0 17 -7 20 -40 20
-33 0 -40 -3 -40 -20z"/>
<path d="M840 1300 c0 -39 1 -40 35 -40 34 0 35 1 35 40 0 39 -1 40 -35 40
-34 0 -35 -1 -35 -40z"/>
<path d="M960 1300 c0 -39 1 -40 35 -40 34 0 35 1 35 40 0 39 -1 40 -35 40
-34 0 -35 -1 -35 -40z"/>
<path d="M1089 1338 c0 -2 -1 -20 -3 -40 -3 -38 -3 -38 36 -38 38 0 38 0 38
40 0 39 -1 40 -35 40 -19 0 -35 -1 -36 -2z"/>
<path d="M840 1190 c0 -39 1 -40 35 -40 34 0 35 1 35 40 0 39 -1 40 -35 40
-34 0 -35 -1 -35 -40z"/>
<path d="M960 1190 c0 -39 1 -40 35 -40 34 0 35 1 35 40 0 39 -1 40 -35 40
-34 0 -35 -1 -35 -40z"/>
<path d="M1085 1193 c2 -36 5 -38 39 -41 36 -3 36 -3 36 37 0 41 0 41 -38 41
-39 0 -39 0 -37 -37z"/>
<path d="M840 1085 c0 -33 2 -35 35 -35 33 0 35 2 35 35 0 33 -2 35 -35 35
-33 0 -35 -2 -35 -35z"/>
<path d="M960 1085 c0 -33 2 -35 35 -35 33 0 35 2 35 35 0 33 -2 35 -35 35
-33 0 -35 -2 -35 -35z"/>
<path d="M1084 1085 c0 -34 1 -35 38 -35 37 0 38 1 38 35 0 34 -1 35 -38 35
-37 0 -38 -1 -38 -35z"/>
<path d="M993 1013 c-30 -4 -33 -7 -33 -39 0 -32 2 -34 35 -34 34 0 35 1 35
40 0 22 -1 39 -2 38 -2 0 -18 -3 -35 -5z"/>
<path d="M840 975 c0 -33 2 -35 35 -35 33 0 35 2 35 35 0 33 -2 35 -35 35 -33
0 -35 -2 -35 -35z"/>
<path d="M1084 975 c0 -34 1 -35 38 -35 37 0 38 1 38 35 0 34 -1 35 -38 35
-37 0 -38 -1 -38 -35z"/>
<path d="M1840 1390 c0 -16 7 -20 35 -20 28 0 35 4 35 20 0 16 -7 20 -35 20
-28 0 -35 -4 -35 -20z"/>
<path d="M1960 1390 c0 -16 7 -20 35 -20 28 0 35 4 35 20 0 16 -7 20 -35 20
-28 0 -35 -4 -35 -20z"/>
<path d="M2090 1390 c0 -16 7 -20 35 -20 28 0 35 4 35 20 0 16 -7 20 -35 20
-28 0 -35 -4 -35 -20z"/>
<path d="M1840 1300 c0 -39 1 -40 35 -40 34 0 35 1 35 40 0 39 -1 40 -35 40
-34 0 -35 -1 -35 -40z"/>
<path d="M1960 1300 c0 -39 1 -40 35 -40 34 0 35 1 35 40 0 39 -1 40 -35 40
-34 0 -35 -1 -35 -40z"/>
<path d="M2090 1300 c0 -39 1 -40 35 -40 34 0 35 1 35 40 0 39 -1 40 -35 40
-34 0 -35 -1 -35 -40z"/>
<path d="M1840 1190 c0 -39 1 -40 35 -40 34 0 35 1 35 40 0 39 -1 40 -35 40
-34 0 -35 -1 -35 -40z"/>
<path d="M1960 1190 c0 -39 1 -40 35 -40 34 0 35 1 35 40 0 39 -1 40 -35 40
-34 0 -35 -1 -35 -40z"/>
<path d="M2090 1190 c0 -39 1 -40 35 -40 34 0 35 1 35 40 0 39 -1 40 -35 40
-34 0 -35 -1 -35 -40z"/>
<path d="M1840 1085 c0 -33 2 -35 35 -35 33 0 35 2 35 35 0 33 -2 35 -35 35
-33 0 -35 -2 -35 -35z"/>
<path d="M1960 1086 c0 -31 3 -34 35 -38 35 -4 35 -4 35 34 0 37 -1 38 -35 38
-33 0 -35 -2 -35 -34z"/>
<path d="M2090 1085 c0 -33 2 -35 35 -35 33 0 35 2 35 35 0 33 -2 35 -35 35
-33 0 -35 -2 -35 -35z"/>
<path d="M1873 1013 c-30 -4 -33 -7 -33 -39 0 -32 2 -34 35 -34 34 0 35 1 35
40 0 22 -1 39 -2 38 -2 0 -18 -3 -35 -5z"/>
<path d="M1993 1013 c-30 -4 -33 -7 -33 -39 0 -32 2 -34 35 -34 34 0 35 1 35
40 0 22 -1 39 -2 38 -2 0 -18 -3 -35 -5z"/>
<path d="M2090 975 c0 -33 2 -35 35 -35 33 0 35 2 35 35 0 33 -2 35 -35 35
-33 0 -35 -2 -35 -35z"/>
</g>
</svg>
