<?xml version="1.0" encoding="utf-8"?>
<svg viewBox="0 0 500 500" xmlns="http://www.w3.org/2000/svg">
  <g transform="matrix(0.1955069899559021, 0, 0, -0.1955069899559021, -33.555992126464844, 541.35400390625)" fill="#000000" stroke="none" style="">
    <path d="M 1493 2670 C 1475 2659 1460 2646 1460 2640 C 1460 2635 1452 2630 1442 2630 C 1423 2630 1390 2601 1390 2584 C 1390 2572 1347 2571 1339 2583 C 1333 2591 1269 2582 1140 2554 C 974 2518 815 2394 713 2219 C 660 2130 574 2010 562 2010 C 549 2010 491 1875 480 1820 C 465 1742 480 1678 544 1540 C 621 1378 636 1335 665 1209 C 716 988 723 921 725 635 C 725 487 724 344 722 318 L 718 271 L 572 267 C 491 266 915 264 1515 264 C 2115 264 2582 265 2553 267 C 2503 271 2501 272 2511 294 C 2533 341 2477 383 2442 348 C 2427 333 2427 297 2442 282 C 2451 273 2439 270 2386 270 L 2317 270 L 2342 290 C 2371 312 2385 363 2370 391 C 2356 416 2320 415 2270 390 C 2196 352 2216 335 1844 755 C 1712 904 1567 1069 1521 1123 C 1446 1210 1417 1239 1435 1210 C 1445 1194 1434 1199 1419 1217 C 1409 1228 1409 1231 1418 1226 C 1439 1214 1431 1235 1407 1258 C 1394 1270 1380 1277 1376 1273 C 1369 1266 1373 1282 1392 1332 C 1399 1350 1398 1376 1391 1412 C 1385 1441 1379 1488 1378 1515 C 1377 1546 1368 1578 1355 1600 C 1340 1623 1329 1668 1320 1733 C 1313 1786 1303 1833 1298 1836 C 1293 1839 1294 1848 1301 1856 C 1310 1867 1310 1873 1300 1885 C 1285 1903 1296 1974 1316 1991 C 1324 1997 1330 2017 1330 2035 C 1330 2055 1336 2070 1345 2074 C 1353 2077 1360 2087 1360 2095 C 1360 2104 1371 2128 1385 2148 C 1399 2168 1410 2197 1410 2212 C 1410 2236 1414 2240 1439 2240 C 1455 2240 1473 2247 1480 2255 C 1487 2263 1503 2270 1516 2270 C 1531 2270 1540 2264 1540 2255 C 1540 2230 1570 2238 1581 2267 L 1591 2294 L 1610 2263 C 1634 2224 1645 2217 1675 2224 C 1706 2232 1726 2296 1736 2413 C 1746 2548 1711 2632 1626 2671 C 1573 2695 1533 2695 1493 2670 Z M 1636 2645 C 1700 2608 1720 2557 1718 2444 L 1716 2355 L 1710 2435 L 1703 2515 L 1703 2415 C 1703 2360 1702 2303 1701 2288 C 1699 2236 1683 2260 1671 2334 C 1660 2401 1652 2417 1595 2497 C 1560 2546 1522 2594 1511 2604 C 1492 2621 1492 2623 1508 2646 C 1531 2677 1581 2677 1636 2645 Z M 1506 2588 C 1561 2528 1563 2523 1531 2528 C 1508 2531 1498 2526 1476 2498 C 1447 2460 1441 2410 1465 2410 C 1473 2410 1487 2422 1497 2436 C 1506 2450 1524 2466 1537 2471 C 1550 2476 1560 2487 1560 2495 C 1560 2504 1565 2508 1570 2505 C 1576 2502 1578 2489 1575 2477 C 1572 2465 1576 2435 1585 2411 C 1593 2387 1600 2367 1600 2365 C 1600 2364 1587 2365 1570 2368 C 1551 2371 1523 2363 1490 2346 C 1463 2332 1440 2323 1440 2327 C 1440 2332 1433 2326 1425 2316 C 1417 2305 1410 2301 1410 2307 C 1410 2320 1441 2347 1448 2340 C 1451 2337 1462 2351 1473 2370 L 1492 2405 L 1468 2378 C 1443 2349 1420 2341 1421 2363 C 1421 2369 1425 2396 1429 2422 C 1433 2448 1433 2467 1429 2465 C 1415 2456 1398 2561 1411 2576 C 1417 2584 1419 2590 1414 2590 C 1398 2591 1443 2620 1460 2620 C 1469 2620 1490 2605 1506 2588 Z M 1343 2535 C 1352 2516 1362 2481 1366 2457 L 1372 2415 L 1341 2469 C 1324 2499 1303 2531 1295 2540 C 1278 2558 1284 2570 1310 2570 C 1319 2570 1334 2554 1343 2535 Z M 1311 2491 C 1356 2416 1388 2337 1395 2277 L 1401 2235 L 1385 2262 C 1364 2300 1310 2313 1256 2295 C 1202 2276 1202 2276 1197 2308 C 1194 2330 1193 2329 1191 2299 C 1191 2279 1183 2257 1175 2250 C 1159 2236 1159 2236 1142 2305 C 1133 2342 1132 2343 1131 2315 C 1130 2298 1134 2271 1139 2253 C 1147 2226 1145 2219 1120 2195 L 1091 2167 L 1085 2196 C 1074 2242 1060 2218 1060 2210 C 1060 2193 1057 2170 1053 2170 C 1049 2170 1017 2200 982 2238 C 923 2300 1002 2192 1031 2166 C 1088 2114 1087 2108 1025 2145 C 983 2169 1080 2036 1077 2033 C 1074 2031 1062 2034 1050 2040 C 1013 2060 1018 2045 1060 2014 C 1105 1981 1115 1958 1073 1985 C 1007 2027 842 2131 928 2057 C 1012 1986 1088 1895 1076 1882 C 1073 1880 1043 1898 1008 1923 C 923 1984 818 2024 853 2002 C 917 1959 1048 1835 1038 1825 C 1035 1822 988 1858 934 1906 C 849 1980 729 2072 681 2099 C 671 2105 677 2123 710 2181 C 836 2404 996 2522 1215 2553 C 1266 2560 1271 2557 1311 2491 Z M 1397 2509 C 1411 2455 1413 2363 1401 2355 C 1396 2352 1389 2380 1385 2417 C 1382 2455 1373 2499 1365 2516 C 1358 2534 1354 2551 1358 2554 C 1371 2568 1386 2551 1397 2509 Z M 1630 2393 C 1641 2363 1650 2332 1649 2322 C 1649 2313 1640 2328 1631 2356 C 1621 2383 1605 2420 1596 2438 C 1587 2455 1580 2473 1580 2477 C 1581 2494 1611 2443 1630 2393 Z M 1565 2334 C 1565 2319 1555 2314 1517 2308 C 1490 2305 1458 2294 1444 2286 C 1431 2277 1420 2274 1420 2279 C 1420 2299 1532 2363 1555 2356 C 1561 2355 1565 2345 1565 2334 Z M 1360 2270 C 1381 2249 1389 2160 1370 2160 C 1365 2160 1360 2169 1360 2179 C 1360 2198 1321 2253 1320 2235 C 1320 2229 1324 2220 1329 2215 C 1335 2209 1342 2185 1346 2160 L 1353 2115 L 1306 2160 C 1249 2215 1246 2205 1301 2145 C 1351 2091 1345 2072 1294 2121 C 1259 2155 1239 2185 1220 2235 C 1211 2259 1213 2262 1243 2275 C 1290 2296 1337 2293 1360 2270 Z M 1233 2161 C 1244 2137 1267 2104 1284 2086 C 1308 2063 1314 2049 1310 2031 C 1305 2010 1301 2013 1260 2066 C 1235 2099 1202 2147 1186 2173 C 1159 2219 1159 2222 1177 2235 C 1193 2247 1196 2246 1204 2227 C 1209 2215 1222 2185 1233 2161 Z M 1173 2146 C 1187 2116 1216 2072 1238 2048 C 1260 2024 1281 1994 1285 1981 C 1292 1959 1282 1928 1274 1906 C 1271 1897 1258 1890 1245 1890 C 1198 1890 1135 1980 1123 2065 C 1120 2089 1114 2107 1109 2105 C 1105 2102 1100 2110 1098 2122 C 1095 2136 1103 2155 1119 2173 C 1133 2188 1145 2200 1146 2200 C 1147 2200 1160 2176 1173 2146 Z M 757 2025 C 808 1987 848 1954 846 1953 C 844 1951 814 1963 779 1980 C 744 1996 706 2010 695 2009 C 684 2009 718 1991 772 1968 C 825 1946 883 1915 902 1899 C 932 1873 928 1874 860 1910 C 819 1932 781 1949 775 1949 C 770 1949 781 1941 800 1931 C 819 1920 835 1906 835 1898 C 835 1890 845 1886 860 1888 C 873 1889 881 1887 877 1884 C 874 1880 914 1852 968 1822 C 1088 1754 1048.492 1778.65 1047.492 1781.65 C 1047.492 1792.65 868 1851 770 1890 C 677 1926 581 1954 574 1947 C 572 1945 634 1920 713 1891 C 891 1825 934 1800 960 1750 C 995 1681 982 1674 934 1736 C 886 1798 874 1769 850 1776 C 836 1780 773 1803 710 1827 C 647 1851 576 1874 553 1877 C 529 1880 510 1885 510 1889 C 510 1892 519 1906 530 1920 C 541 1934 550 1951 550 1958 C 550 1965 567 1989 589 2013 C 610 2036 633 2065 639 2078 C 646 2091 654 2100 658 2098 C 662 2096 706 2064 757 2025 Z M 1140 1899 C 1170 1869 1174 1868 1232 1873 C 1301 1879 1280 1837 1283 1834 C 1296 1821 1275 1797 1236 1779 C 1201 1763 1199 1760 1221 1760 C 1235 1760 1255 1767 1266 1775 C 1276 1783 1288 1790 1292 1790 C 1305 1790 1313 1639 1300 1612 C 1289 1586 1289 1586 1308 1603 C 1324 1618 1328 1619 1333 1606 C 1341 1586 1332 1580 1293 1580 C 1248 1580 1207 1602 1176 1643 C 1140 1690 1144 1698 1185 1661 C 1222 1629 1250 1621 1250 1642 C 1250 1648 1219 1684 1180 1721 C 1142 1758 1110 1793 1110 1800 C 1110 1809 1116 1808 1128 1797 C 1148 1778 1187 1775 1210 1790 C 1222 1797 1221 1800 1205 1805 C 1153 1821 1135 1838 1118 1883 C 1108 1909 1102 1930 1104 1930 C 1107 1930 1123 1916 1140 1899 Z M 541 1861 C 531 1855 538 1849 566 1840 C 588 1833 611 1823 618 1817 C 628 1809 634 1810 640 1820 C 650 1835 685 1813 739 1756 C 781 1712 774 1698 727 1734 C 674 1775 674 1764 727 1719 C 820 1638 793 1639 677 1720 C 534 1819 550 1795 711 1670 C 753 1638 790 1602 793 1591 C 796 1579 796 1570 793 1570 C 790 1570 759 1590 724 1615 C 645 1670 640 1659 716 1599 C 797 1536 810 1523 810 1499 L 810 1479 L 783 1498 C 734 1533 639 1631 593 1694 C 534 1775 532 1775 568 1705 C 602 1639 642 1588 768 1450 C 813 1401 850 1351 850 1341 C 850 1306 617 1560 533 1686 C 526 1697 531 1679 545 1647 C 587 1548 656 1455 765 1353 L 869 1255 L 875 1160 L 881 1065 L 800 1149 C 728 1224 711 1250 650 1374 C 555 1570 507 1694 502 1762 C 496 1840 505 1870 533 1870 C 549 1870 551 1867 541 1861 Z M 1098 1822 C 1101 1805 1096 1800 1081 1800 C 1067 1800 1060 1806 1060 1818 C 1060 1856 1093 1859 1098 1822 Z M 880 1705 C 891 1715 898 1730 896 1737 C 886 1762 905 1749 938 1708 C 978 1658 979 1645 941 1664 C 910 1681 844 1686 818 1675 C 807 1671 798 1675 791 1689 C 781 1707 782 1709 797 1703 C 809 1699 804 1709 783 1733 C 730 1794 745 1799 805 1740 C 859 1687 860 1687 880 1705 Z M 1070 1685 C 1070 1677 1074 1662 1079 1652 C 1085 1643 1091 1619 1095 1599 C 1098 1579 1109 1555 1120 1545 C 1131 1535 1140 1517 1140 1506 C 1140 1489 1138 1488 1130 1500 C 1111 1530 1120 1491 1143 1449 C 1155 1426 1173 1405 1183 1402 C 1193 1400 1199 1392 1196 1385 C 1190 1368 1268 1280 1288 1280 C 1297 1280 1300 1277 1297 1273 C 1283 1260 1311 1240 1330 1250 C 1350 1261 1352 1259 1890 655 C 2047 479 2190 320 2208 303 L 2241 270 L 1793 270 L 1345 270 L 1343 297 C 1342 330 1307 360 1271 360 C 1202 360 1113 408 1104 450 C 1101 464 1091 492 1082 513 C 1067 550 1068 567 1095 823 C 1133 1172 1132 1200 1091 1320 C 1073 1372 1054 1424 1050 1435 C 1045 1446 1038 1470 1034 1489 C 1031 1508 1017 1546 1004 1574 C 984 1617 983 1626 995 1633 C 1003 1637 1010 1650 1010 1661 C 1010 1672 1020 1685 1033 1690 C 1065 1703 1070 1702 1070 1685 Z M 941 1644 C 957 1636 970 1623 970 1616 C 970 1608 973 1593 977 1583 C 982 1568 979 1568 958 1588 C 923 1620 911 1615 943 1582 C 964 1560 974 1535 985 1469 C 993 1423 1000 1384 1000 1382 C 1000 1381 983 1391 963 1405 C 910 1440 898 1436 948 1400 C 991 1369 1010 1343 1010 1314 C 1010 1298 1009 1298 990 1315 C 979 1325 970 1328 970 1323 C 970 1317 977 1306 987 1299 C 996 1291 1011 1267 1021 1244 C 1038 1206 1039 1196 1024 1079 C 1005 923 985 824 956 743 C 943 709 936 680 940 680 C 945 680 962 717 978 763 C 1010 852 1037 988 1047 1118 C 1053 1201 1057 1209 1078 1188 C 1101 1165 1090 1187 1060 1225 C 1012 1285 1028 1304 1081 1251 C 1118 1213 1122 1145 1089 1098 C 1070 1072 1066 1047 1059 921 C 1054 841 1046 746 1040 710 C 1031 648 1028 644 965 585 C 927 549 900 516 900 505 C 901 488 903 490 916 512 C 930 538 958 560 978 560 C 986 560 1040 450 1040 435 C 1040 432 1028 433 1013 436 C 997 439 963 437 937 432 L 889 422 L 892 799 C 893 1006 890 1190 886 1209 L 878 1243 L 906 1223 C 922 1211 952 1186 973 1166 C 1039 1100 1012 1147 935 1229 C 853 1317 828 1374 903 1304 C 926 1282 956 1255 970 1245 C 995 1225 995 1225 980 1245 C 972 1256 937 1295 903 1332 C 831 1408 820 1437 883 1389 C 955 1334 957 1335 894 1396 C 851 1437 830 1466 825 1489 L 818 1523 L 849 1500 C 896 1467 897 1481 851 1516 C 817 1541 793 1586 806 1599 C 808 1601 842 1579 882 1550 C 949 1502 952 1501 920 1535 C 901 1555 864 1585 838 1602 C 811 1619 792 1635 794 1637 C 796 1639 818 1631 844 1620 C 913 1591 915 1597 847 1629 L 790 1656 L 851 1657 C 889 1658 924 1653 941 1644 Z M 1177 1561 C 1184 1542 1188 1524 1186 1522 C 1178 1514 1139 1581 1134 1612 L 1129 1645 L 1147 1621 C 1157 1607 1170 1581 1177 1561 Z M 1289 1560 C 1311 1560 1332 1565 1335 1570 C 1343 1583 1360 1573 1360 1555 C 1360 1522 1232 1483 1215 1510 C 1212 1516 1218 1520 1229 1520 C 1240 1520 1252 1525 1255 1530 C 1258 1536 1255 1540 1247 1540 C 1240 1540 1223 1552 1209 1566 L 1185 1593 L 1217 1576 C 1235 1567 1267 1560 1289 1560 Z M 1020 1487 C 1020 1469 1016 1461 1009 1466 C 1003 1469 1000 1483 1003 1496 C 1005 1510 1003 1523 999 1526 C 994 1529 990 1539 990 1548 C 991 1577 1019 1518 1020 1487 Z M 1346 1463 C 1331 1450 1312 1440 1304 1440 C 1292 1440 1293 1447 1311 1473 C 1342 1516 1353 1522 1364 1503 C 1371 1491 1366 1481 1346 1463 Z M 1249 1453 C 1250 1452 1249 1447 1245 1441 C 1237 1427 1180 1468 1180 1487 C 1180 1496 1190 1494 1213 1478 C 1230 1465 1247 1454 1249 1453 Z M 1055 1368 C 1066 1333 1076 1299 1078 1293 C 1080 1284 1071 1286 1051 1298 C 1034 1307 1020 1318 1020 1323 C 1020 1334 1034 1331 1050 1318 C 1058 1311 1053 1319 1037 1336 C 1008 1369 1001 1396 1024 1387 C 1034 1383 1037 1386 1033 1396 C 1030 1403 1024 1410 1020 1410 C 1016 1410 1010 1419 1007 1430 C 1003 1446 1005 1448 1019 1440 C 1029 1435 1045 1403 1055 1368 Z M 1376 1394 C 1380 1359 1379 1335 1372 1328 C 1366 1322 1364 1312 1366 1305 C 1369 1299 1363 1287 1354 1279 C 1338 1266 1338 1267 1349 1287 C 1360 1309 1359 1309 1328 1303 C 1302 1299 1297 1300 1307 1310 C 1322 1326 1313 1350 1292 1350 C 1279 1350 1280 1347 1296 1335 C 1315 1321 1315 1321 1295 1321 C 1271 1321 1237 1363 1242 1388 C 1244 1397 1249 1404 1253 1403 C 1257 1401 1274 1400 1292 1400 C 1323 1400 1323 1400 1304 1379 C 1290 1363 1289 1358 1300 1362 C 1308 1364 1321 1377 1327 1391 C 1338 1411 1337 1416 1324 1418 C 1311 1421 1313 1425 1331 1435 C 1367 1455 1368 1454 1376 1394 Z M 819 1094 L 880 1055 L 878 740 L 875 424 L 810 408 C 774 400 743 394 741 396 C 739 398 742 439 749 488 C 755 537 760 597 760 623 C 760 679 773 689 808 659 L 834 635 L 817 660 C 777 719 765 750 749 840 C 739 892 734 937 736 939 C 738 942 758 926 780 905 C 825 861 832 865 796 913 C 759 963 744 999 710 1111 C 693 1168 677 1224 673 1235 C 670 1246 688 1228 713 1194 C 741 1155 780 1119 819 1094 Z M 1645 965 C 1732 866 1819 768 1838 748 C 1858 727 1871 710 1868 710 C 1864 710 1776 806 1672 923 C 1568 1040 1475 1141 1466 1149 C 1457 1156 1450 1167 1450 1173 C 1450 1187 1455 1182 1645 965 Z M 1054 525 C 1050 507 1051 500 1060 502 C 1078 506 1093 438 1077 428 C 1070 424 1061 428 1056 437 C 1045 458 1037 519 1044 537 C 1053 560 1061 551 1054 525 Z M 1041 399 C 1057 388 1068 375 1065 370 C 1060 363 1109 347 1184 332 C 1206 328 1225 319 1228 312 C 1234 293 1048 296 975 316 C 942 325 902 335 885 339 L 855 346 L 880 360 C 894 367 924 373 947 373 C 979 373 987 376 980 385 C 972 395 958 394 917 383 C 889 374 861 364 856 359 C 843 347 817 348 783 361 L 755 373 L 783 381 C 805 387 902 400 952 404 C 955 405 962 408 966 413 C 979 426 1011 420 1041 399 Z M 1136 385 C 1156 372 1188 358 1209 354 C 1295 339 1311 334 1311 325 C 1310 308 1259 308 1241 324 C 1231 333 1200 344 1171 350 C 1126 358 1060 392 1060 406 C 1060 419 1104 407 1136 385 Z M 2344 394 C 2353 391 2360 379 2360 368 C 2360 350 2358 350 2345 364 C 2331 378 2324 378 2277 360 C 2209 334 2198 335 2169 367 C 2153 386 2151 390 2165 379 C 2200 351 2219 350 2272 375 C 2334 404 2325 401 2344 394 Z M 2488 341 C 2503 332 2501 299 2485 293 C 2479 291 2466 296 2455 304 C 2439 316 2438 320 2449 334 C 2464 352 2470 353 2488 341 Z M 915 303 C 967 288 972 285 950 279 C 912 268 880 269 880 280 C 880 286 892 288 908 285 C 923 283 918 287 895 294 C 873 302 829 309 798 309 C 762 310 740 314 740 321 C 740 336 831 326 915 303 Z"/>
    <path d="M1447 2563 c-11 -11 30 -33 48 -26 15 5 14 8 -6 19 -28 15 -33 16 -42 7z"/>
  </g>
</svg>