<?xml version="1.0" encoding="utf-8"?>
<svg viewBox="0 0 500 500" xmlns="http://www.w3.org/2000/svg">
  <g transform="matrix(0.1955069899559021, 0, 0, -0.1955069899559021, -33.555992126464844, 541.35400390625)" fill="#000000" stroke="none" style="">
    <g transform="matrix(0.511491, 0, 0, 0.511491, -375.319, -341.387512)" fill="#000000" stroke="none">
      <path d="M 3726.9 6024.725 C 3713.105 6020.962 3694.294 6017.2 3684.888 6017.2 C 3648.519 6015.947 3565.749 5983.339 3517.467 5950.733 C 3435.323 5894.926 3371.992 5812.784 3364.467 5753.214 C 3359.45 5714.337 3349.418 5684.239 3341.266 5684.239 C 3338.132 5684.239 3331.233 5675.461 3325.59 5664.8 C 3313.049 5639.719 3322.455 5612.755 3348.791 5598.961 C 3379.516 5583.285 3371.992 5568.863 3328.099 5555.694 C 3283.579 5542.526 3272.918 5536.255 3272.918 5523.088 C 3272.918 5518.071 3252.226 5492.363 3226.517 5466.654 C 3200.809 5440.318 3157.542 5392.662 3130.579 5360.683 C 3092.329 5315.536 3077.906 5302.367 3065.366 5302.367 C 3047.809 5301.741 3028.37 5284.811 3028.37 5269.761 C 3028.37 5255.339 3051.57 5244.052 3065.994 5251.577 C 3081.042 5259.728 3082.297 5259.728 3093.583 5247.814 C 3099.226 5242.171 3103.615 5227.749 3103.615 5213.327 C 3103.615 5199.532 3106.751 5182.602 3109.886 5175.704 C 3113.648 5169.433 3119.292 5151.876 3121.8 5137.454 C 3128.07 5109.865 3142.493 5048.414 3157.542 4988.217 C 3161.931 4969.406 3168.829 4939.934 3172.592 4922.378 C 3176.981 4905.447 3183.878 4877.23 3188.267 4859.672 C 3193.284 4842.743 3200.181 4815.78 3204.57 4800.104 C 3221.501 4735.518 3216.484 4741.162 3262.885 4736.145 C 3286.086 4734.263 3313.677 4729.248 3324.336 4725.485 C 3351.299 4716.079 3410.242 4716.706 3459.778 4727.993 C 3482.979 4733.009 3513.078 4738.026 3526.872 4738.652 C 3551.954 4740.534 3551.954 4740.534 3556.343 4771.887 C 3560.106 4802.611 3566.376 4829.574 3583.934 4889.144 C 3588.949 4905.447 3592.712 4925.512 3592.712 4934.291 C 3592.712 4942.442 3595.848 4957.492 3599.61 4967.525 C 3608.388 4990.098 3622.81 5050.295 3630.335 5096.696 C 3634.097 5116.762 3639.113 5138.708 3642.876 5144.979 C 3646.011 5151.249 3649.146 5166.299 3649.146 5178.213 C 3649.146 5203.921 3666.704 5257.847 3675.482 5257.847 C 3678.618 5257.847 3686.769 5255.339 3693.039 5251.577 C 3708.088 5243.425 3723.138 5249.069 3727.527 5264.745 C 3733.797 5282.93 3721.256 5297.978 3699.31 5299.233 C 3679.244 5300.486 3662.314 5314.908 3610.269 5375.732 C 3596.474 5392.035 3566.376 5425.268 3543.176 5449.096 C 3504.926 5489.227 3491.131 5509.919 3484.861 5533.121 C 3483.606 5537.51 3464.795 5546.916 3443.475 5553.813 C 3398.955 5567.608 3391.43 5583.285 3422.783 5599.588 C 3442.22 5609.62 3452.881 5636.583 3445.356 5658.53 C 3443.475 5665.428 3433.442 5677.969 3422.783 5686.747 C 3378.263 5724.37 3417.139 5804.632 3495.52 5835.984 C 3597.729 5876.741 3702.446 5869.218 3856.072 5809.648 C 3874.882 5802.123 3896.203 5794.599 3903.1 5792.718 C 3909.998 5790.837 3919.403 5785.82 3924.42 5782.057 C 3935.079 5773.906 3955.771 5761.992 3973.329 5753.84 C 3988.379 5746.943 4074.911 5667.308 4112.533 5624.669 C 4125.075 5611.502 4139.497 5595.825 4144.513 5590.182 C 4158.934 5575.133 4194.676 5529.358 4194.676 5525.596 C 4194.676 5523.715 4204.709 5507.412 4217.25 5489.227 C 4229.164 5471.043 4246.721 5440.318 4255.5 5420.879 C 4264.279 5402.068 4273.684 5381.375 4276.82 5375.732 C 4285.598 5358.175 4301.901 5313.655 4307.545 5289.2 C 4310.68 5277.286 4315.696 5255.966 4319.459 5242.171 C 4336.388 5173.196 4341.405 5132.438 4344.54 5022.704 L 4348.302 4903.566 L 4365.86 4900.431 L 4382.79 4897.295 L 4382.79 3739.141 L 4382.79 2580.987 L 4362.725 2541.482 C 4331.999 2481.286 4241.078 2394.753 4174.611 2361.52 C 4081.808 2315.746 4054.846 2309.475 3954.518 2309.475 C 3889.304 2309.475 3857.953 2311.983 3837.261 2319.508 C 3821.584 2325.152 3805.281 2329.541 3800.264 2329.541 C 3792.739 2329.541 3732.544 2355.25 3699.31 2372.806 C 3660.433 2393.5 3728.781 2455.576 3798.383 2463.101 C 3822.837 2466.237 3828.481 2464.356 3849.801 2444.917 C 3880.526 2417.328 3905.609 2416.073 3920.657 2442.409 C 3931.317 2459.967 3931.317 2461.848 3921.284 2481.286 C 3915.641 2492.573 3903.727 2511.384 3894.948 2522.671 L 3879.9 2542.737 L 3894.948 2563.429 C 3919.403 2594.782 3926.928 2624.88 3921.912 2671.282 C 3915.014 2732.105 3913.132 2733.358 3846.039 2724.58 C 3815.314 2720.191 3780.198 2715.174 3767.658 2713.92 C 3746.966 2711.413 3720.63 2721.445 3705.58 2737.121 C 3675.482 2768.473 3562.613 2775.998 3509.942 2750.916 C 3470.437 2731.478 3427.172 2691.974 3405.852 2656.858 C 3387.041 2624.252 3367.602 2567.191 3366.975 2542.737 C 3366.975 2533.957 3362.586 2520.163 3357.569 2511.384 C 3352.553 2502.606 3348.791 2489.437 3348.164 2481.914 C 3347.536 2447.425 3292.983 2365.283 3246.582 2328.914 C 3231.534 2317 3218.365 2306.34 3216.484 2304.458 C 3197.673 2285.021 3098.6 2235.484 3077.906 2235.484 C 3071.009 2235.484 3059.095 2232.349 3051.57 2228.587 C 3036.522 2220.435 2912.994 2207.267 2796.364 2200.996 C 2698.544 2195.98 2610.13 2178.423 2548.68 2150.832 C 2538.648 2145.817 2525.479 2140.8 2520.463 2138.918 C 2515.446 2136.411 2502.906 2129.514 2492.246 2122.615 C 2482.213 2115.718 2467.164 2107.567 2459.639 2104.431 C 2444.59 2097.534 2336.738 1992.817 2329.841 1978.395 C 2327.959 1973.378 2320.435 1960.838 2313.538 1950.178 C 2295.98 1922.588 2257.103 1841.071 2257.103 1832.293 C 2257.103 1827.904 2252.714 1818.498 2247.697 1811.601 C 2242.682 1805.331 2238.293 1794.67 2238.293 1788.4 C 2238.293 1781.503 2234.53 1768.962 2229.513 1760.183 C 2224.497 1750.776 2214.465 1730.712 2206.94 1715.036 C 2166.809 1631.638 2128.559 1583.983 2068.989 1542.598 C 2031.994 1516.888 1968.035 1483.029 1954.867 1483.029 C 1941.699 1482.401 1918.499 1459.828 1918.499 1447.287 C 1918.499 1440.389 1927.903 1428.475 1938.564 1419.696 C 1958.002 1405.901 1964.272 1404.648 2034.501 1404.648 C 2107.867 1404.648 2110.374 1405.275 2145.488 1425.34 C 2193.144 1451.676 2203.804 1451.676 2198.161 1425.34 C 2195.652 1414.053 2192.518 1377.684 2190.637 1345.078 C 2187.501 1293.033 2188.755 1281.747 2200.043 1254.783 C 2215.091 1220.922 2210.075 1210.263 2184.366 1216.533 C 2177.468 1217.788 2013.809 1219.669 1820.679 1219.669 L 1470.16 1220.296 L 1470.16 1172.64 L 1470.16 1125.612 L 3406.48 1125.612 C 4471.203 1125.612 5345.306 1125.612 5348.442 1125.612 C 5352.204 1125.612 5354.712 1145.677 5354.712 1172.64 C 5354.712 1213.399 5353.459 1219.669 5344.053 1219.669 C 5337.782 1219.669 5202.967 1219.669 5044.324 1219.041 C 4701.33 1217.788 4727.666 1217.788 4723.277 1221.55 C 4722.022 1223.432 4723.277 1251.021 4726.412 1283 C 4729.547 1314.98 4730.801 1345.078 4728.919 1350.095 C 4727.038 1355.111 4717.005 1362.636 4706.346 1367.025 L 4686.908 1375.176 L 4688.788 1434.746 L 4691.298 1494.315 L 4668.723 1515.007 C 4643.642 1537.582 4639.252 1561.408 4655.556 1589.626 C 4669.351 1613.454 4666.843 1629.13 4647.404 1641.671 C 4637.998 1648.569 4626.084 1663.617 4620.442 1676.158 C 4614.798 1689.327 4605.392 1710.019 4599.748 1723.187 C 4594.104 1736.355 4589.715 1758.929 4589.715 1773.978 C 4589.715 1797.179 4592.851 1804.076 4609.154 1817.871 C 4620.442 1827.904 4629.22 1842.326 4631.728 1854.866 C 4634.235 1873.051 4631.101 1879.321 4606.018 1905.03 C 4590.343 1921.333 4575.92 1942.654 4574.039 1952.058 C 4572.159 1961.464 4567.769 1979.022 4564.634 1991.563 C 4554.601 2027.931 4557.109 2044.862 4574.039 2060.538 C 4592.851 2078.722 4594.104 2099.415 4577.175 2120.734 C 4561.498 2140.8 4561.498 2150.832 4575.92 2161.492 C 4589.089 2170.898 4597.867 2198.488 4592.223 2212.91 C 4590.343 2217.926 4579.056 2227.959 4567.142 2234.857 L 4545.822 2247.398 L 4545.822 3924.12 C 4545.822 5591.436 4545.822 5600.841 4558.364 5617.145 C 4575.92 5639.091 4574.667 5661.665 4554.601 5676.087 C 4540.806 5686.12 4539.551 5689.883 4545.195 5704.931 C 4548.958 5714.964 4552.093 5730.64 4552.093 5740.046 C 4552.093 5750.079 4556.482 5761.365 4561.498 5765.754 C 4566.515 5770.145 4570.904 5783.312 4570.904 5794.599 C 4570.904 5812.156 4566.515 5819.054 4543.314 5835.984 C 4508.2 5861.693 4503.811 5872.352 4520.114 5886.147 C 4539.551 5901.197 4538.298 5946.971 4518.859 5965.155 C 4472.458 6009.048 4399.721 5982.086 4400.347 5921.889 C 4400.975 5904.332 4404.11 5893.046 4410.38 5889.91 C 4427.311 5880.504 4421.667 5863.574 4392.196 5834.73 C 4362.098 5805.259 4356.454 5784.566 4372.758 5766.382 C 4377.774 5760.739 4385.925 5742.554 4389.688 5726.251 C 4397.213 5700.542 4396.585 5695.525 4387.807 5686.747 C 4376.519 5674.833 4363.979 5679.85 4363.979 5696.153 C 4363.979 5709.32 4325.102 5773.906 4295.631 5809.648 C 4269.921 5840.373 4148.902 5931.296 4100.619 5956.377 C 4035.407 5989.611 3959.534 6013.438 3890.559 6022.217 C 3810.925 6032.25 3755.117 6033.503 3726.9 6024.725 Z M 3777.064 5975.188 C 3782.706 5970.172 3787.097 5958.885 3787.097 5950.733 C 3787.097 5934.43 3758.88 5903.705 3743.83 5903.705 C 3731.289 5903.705 3705.58 5928.786 3705.58 5940.7 C 3706.207 5954.496 3725.646 5977.069 3740.695 5980.831 C 3762.014 5985.848 3767.031 5985.22 3777.064 5975.188 Z M 3937.587 5968.917 C 3956.399 5963.902 3980.854 5956.377 3990.887 5953.241 C 4001.546 5949.48 4018.477 5943.836 4028.51 5941.328 C 4078.672 5926.905 4113.161 5909.349 4113.161 5897.435 C 4113.161 5894.926 4095.603 5891.164 4074.283 5889.283 C 4038.543 5885.521 4032.899 5883.013 4014.087 5861.693 C 4002.801 5849.152 3992.14 5832.221 3990.26 5824.07 C 3987.751 5815.918 3982.735 5809.648 3978.346 5809.648 C 3968.313 5809.648 3931.317 5851.033 3931.317 5862.319 C 3931.317 5877.996 3953.891 5891.791 3972.076 5887.402 C 3987.751 5883.64 3988.379 5884.266 3986.497 5901.197 C 3984.616 5916.872 3981.48 5919.382 3963.296 5921.263 C 3921.912 5925.652 3897.456 5898.688 3904.354 5856.677 C 3908.743 5830.968 3911.879 5830.968 3864.223 5856.049 C 3853.564 5861.693 3837.887 5866.082 3829.109 5866.082 C 3820.33 5866.082 3807.162 5871.726 3799.011 5877.996 L 3784.588 5889.91 L 3805.281 5909.349 C 3824.092 5926.905 3825.973 5931.296 3822.211 5953.241 C 3820.33 5966.41 3820.33 5978.324 3822.211 5980.205 C 3827.854 5985.848 3899.965 5978.95 3937.587 5968.917 Z M 3677.363 5951.361 C 3674.855 5938.819 3676.11 5928.786 3679.871 5926.278 C 3683.633 5923.771 3686.769 5917.5 3686.769 5912.483 C 3686.769 5906.213 3677.99 5903.705 3652.908 5903.705 C 3624.691 5903.705 3616.54 5906.213 3609.015 5917.5 C 3596.474 5935.685 3606.507 5952.614 3636.605 5963.274 C 3675.482 5977.069 3681.752 5975.816 3677.363 5951.361 Z M 4483.745 5941.328 C 4498.167 5933.175 4500.048 5903.705 4486.253 5903.705 C 4481.236 5903.705 4476.847 5906.84 4476.847 5909.975 C 4476.847 5913.738 4474.339 5916.246 4470.577 5916.246 C 4467.442 5916.246 4464.306 5910.602 4464.306 5903.078 C 4464.306 5879.877 4442.36 5891.164 4440.478 5915.619 C 4437.344 5945.089 4456.155 5955.75 4483.745 5941.328 Z M 3575.782 5920.635 C 3577.663 5915.619 3577.035 5909.349 3575.154 5905.586 C 3569.512 5897.435 3531.889 5884.894 3513.704 5884.894 C 3496.147 5884.894 3493.639 5896.18 3509.942 5901.824 C 3515.585 5904.332 3527.499 5911.23 3535.651 5917.5 C 3553.209 5930.668 3571.393 5931.922 3575.782 5920.635 Z M 4152.037 5852.915 C 4197.184 5837.865 4204.709 5832.849 4246.721 5792.718 C 4283.717 5757.603 4323.848 5704.304 4335.135 5676.087 C 4345.168 5651.633 4340.779 5634.075 4318.204 5605.858 C 4302.529 5586.419 4297.512 5583.911 4270.549 5583.911 C 4244.214 5583.911 4238.57 5586.419 4229.164 5600.841 C 4207.217 5633.448 4222.893 5671.698 4258.635 5671.698 C 4271.803 5671.698 4276.193 5674.833 4276.193 5683.612 C 4276.193 5697.406 4264.279 5703.05 4237.943 5703.05 C 4214.742 5703.05 4189.661 5679.222 4184.644 5652.886 C 4179.628 5629.058 4172.73 5624.669 4162.07 5637.837 C 4157.681 5643.481 4137.616 5664.173 4118.177 5684.239 C 4098.111 5703.678 4081.808 5721.862 4081.808 5724.37 C 4081.808 5726.878 4089.96 5731.267 4099.366 5735.029 C 4118.803 5741.3 4138.242 5769.517 4138.242 5790.209 C 4138.242 5805.885 4096.857 5847.271 4080.553 5847.271 C 4064.878 5847.271 4066.132 5833.476 4084.944 5815.918 C 4104.381 5797.107 4105.009 5784.566 4085.571 5766.382 L 4069.894 5751.959 L 4047.947 5765.754 C 4030.39 5776.415 4025.374 5783.312 4025.374 5797.734 C 4025.374 5819.68 4041.677 5847.271 4054.846 5847.271 C 4059.861 5847.271 4068.013 5851.66 4073.03 5856.677 C 4086.197 5869.218 4106.263 5868.59 4152.037 5852.915 Z M 4479.355 5841.627 C 4484.999 5832.221 4465.561 5820.935 4451.766 5825.324 C 4432.327 5831.594 4436.089 5847.271 4457.409 5847.271 C 4468.069 5847.271 4477.475 5844.763 4479.355 5841.627 Z M 4524.503 5808.394 C 4526.384 5805.885 4527.011 5799.615 4525.13 5793.971 C 4521.995 5786.448 4510.708 5784.566 4471.203 5784.566 C 4419.786 5784.566 4401.602 5788.329 4401.602 5797.734 C 4401.602 5809.648 4430.446 5815.918 4474.966 5814.037 C 4499.42 5813.41 4521.995 5810.902 4524.503 5808.394 Z M 4513.216 5745.689 C 4515.097 5736.284 4510.708 5734.403 4490.642 5734.403 C 4476.847 5734.403 4461.171 5732.521 4455.528 5730.64 C 4447.377 5727.504 4446.749 5725.623 4454.9 5718.1 C 4467.442 5705.558 4459.917 5690.509 4441.733 5690.509 C 4424.802 5690.509 4414.769 5706.186 4425.43 5716.845 C 4430.446 5721.862 4429.192 5726.251 4422.921 5732.521 C 4415.397 5740.046 4415.397 5743.807 4421.04 5750.706 C 4426.683 5757.603 4439.852 5759.484 4469.95 5758.231 C 4503.183 5756.976 4511.334 5754.468 4513.216 5745.689 Z M 4522.622 5662.292 C 4538.925 5655.395 4535.162 5641.6 4516.351 5637.837 C 4496.286 5633.448 4422.921 5634.075 4406.618 5638.464 C 4388.433 5642.853 4394.077 5658.53 4416.024 5664.8 C 4436.716 5671.698 4502.556 5669.817 4522.622 5662.292 Z M 3394.566 5661.665 C 3407.733 5656.648 3407.733 5637.837 3394.566 5627.178 C 3387.667 5621.534 3382.025 5620.906 3374.5 5625.923 C 3347.536 5642.853 3365.094 5672.951 3394.566 5661.665 Z M 4387.807 5606.485 C 4397.839 5584.538 4392.196 5518.699 4380.282 5516.19 C 4368.996 5513.682 4307.545 5545.661 4307.545 5553.813 C 4307.545 5556.949 4314.443 5561.964 4323.221 5565.1 C 4331.373 5568.235 4345.794 5582.03 4354.573 5596.452 C 4372.758 5625.297 4378.401 5627.178 4387.807 5606.485 Z M 4456.781 3926.628 C 4458.036 2406.041 4457.409 2247.398 4448.003 2243.635 C 4442.986 2241.754 4436.089 2242.382 4432.327 2246.143 C 4424.175 2254.296 4419.786 5590.808 4428.564 5601.469 C 4431.7 5605.858 4439.225 5608.366 4444.867 5607.739 C 4454.274 5605.858 4454.9 5456.621 4456.781 3926.628 Z M 4497.539 3924.12 C 4496.286 3001.107 4494.405 2244.263 4492.523 2243.009 C 4478.102 2227.959 4476.847 2328.914 4476.847 3924.747 C 4476.847 4846.505 4478.728 5602.095 4480.609 5604.603 C 4499.42 5623.416 4499.42 5605.231 4497.539 3924.12 Z M 4276.193 5527.477 C 4289.36 5516.818 4320.085 5498.633 4344.54 5486.719 L 4389.061 5464.773 L 4389.061 5417.745 C 4389.061 5376.359 4387.807 5370.715 4377.147 5370.715 C 4359.59 5370.715 4311.934 5410.22 4298.138 5437.182 C 4282.463 5467.907 4244.84 5523.715 4237.315 5526.222 C 4234.807 5527.477 4232.3 5532.494 4232.3 5537.51 C 4232.3 5551.932 4250.484 5547.543 4276.193 5527.477 Z M 3426.545 5527.477 C 3435.323 5524.341 3442.22 5518.699 3442.22 5515.563 C 3442.22 5506.785 3423.409 5504.276 3375.127 5507.412 C 3322.455 5510.547 3313.677 5521.833 3356.316 5532.494 C 3383.278 5538.764 3398.955 5538.136 3426.545 5527.477 Z M 3379.516 5415.235 C 3381.397 5375.732 3380.144 5346.887 3376.381 5342.498 C 3368.23 5333.092 3306.152 5320.551 3264.14 5320.551 C 3246.582 5320.551 3220.873 5317.417 3207.079 5313.655 C 3132.461 5293.589 3123.681 5301.741 3171.337 5346.887 C 3187.64 5362.564 3221.501 5397.051 3246.582 5423.387 C 3284.205 5462.891 3295.493 5471.043 3312.422 5471.67 C 3323.082 5471.67 3338.132 5474.179 3345.028 5477.313 C 3373.246 5489.854 3376.381 5484.212 3379.516 5415.235 Z M 3498.028 5379.495 C 3520.601 5353.786 3520.601 5343.125 3496.773 5340.617 C 3468.556 5337.482 3454.762 5349.396 3454.762 5376.986 C 3454.762 5409.592 3471.065 5410.846 3498.028 5379.495 Z M 4360.844 5339.364 C 4363.979 5339.364 4371.504 5334.973 4377.774 5328.703 C 4387.18 5319.925 4389.061 5308.637 4389.061 5244.68 C 4389.061 5198.905 4386.552 5169.433 4382.163 5166.925 C 4372.13 5160.655 4370.877 5163.79 4363.979 5214.581 C 4357.082 5262.236 4350.184 5289.827 4335.135 5325.568 C 4324.476 5350.65 4329.491 5363.19 4344.54 5349.396 C 4350.811 5343.753 4357.708 5339.364 4360.844 5339.364 Z M 3363.839 5069.106 C 3363.839 4950.595 3361.332 4849.639 3358.197 4845.878 C 3350.046 4833.336 3324.336 4836.472 3316.811 4849.639 C 3313.677 4856.538 3291.73 4846.505 3289.849 4840.861 C 3284.832 4829.574 3242.193 4827.694 3239.058 4839.607 C 3237.804 4843.369 3231.534 4869.705 3225.89 4897.295 C 3219.62 4924.886 3212.095 4956.237 3208.96 4966.27 C 3205.824 4976.931 3200.809 4997.623 3197.673 5013.3 C 3194.537 5028.975 3188.895 5054.057 3185.132 5069.734 C 3180.743 5085.409 3173.845 5112.373 3169.456 5129.302 C 3165.067 5146.86 3158.168 5173.196 3153.779 5188.872 C 3150.017 5204.549 3145.001 5227.749 3143.12 5240.917 L 3139.984 5264.117 L 3168.201 5264.117 C 3184.504 5264.117 3211.468 5267.253 3229.652 5271.016 C 3264.14 5278.539 3346.91 5287.945 3357.569 5286.064 C 3361.332 5285.437 3363.839 5208.311 3363.839 5069.106 Z M 3476.709 5279.794 C 3500.536 5274.778 3540.667 5270.388 3565.749 5270.388 C 3615.913 5270.388 3630.335 5266.625 3630.335 5254.085 C 3630.335 5238.408 3609.015 5233.392 3567.003 5239.036 C 3545.056 5242.171 3504.926 5245.306 3477.962 5245.306 C 3424.664 5245.306 3404.598 5252.203 3404.598 5269.761 C 3404.598 5292.334 3412.122 5293.589 3476.709 5279.794 Z M 3473.573 5219.597 C 3489.25 5215.835 3524.364 5210.819 3551.954 5208.311 C 3607.762 5203.921 3612.151 5200.158 3600.237 5158.147 C 3597.101 5145.605 3590.831 5121.779 3586.441 5104.221 C 3582.052 5087.29 3574.527 5055.938 3569.512 5035.246 C 3565.121 5014.553 3558.224 4985.082 3555.717 4969.406 C 3552.581 4953.73 3546.937 4925.512 3542.548 4906.702 C 3526.245 4830.202 3528.753 4834.591 3503.045 4832.71 C 3482.979 4830.829 3479.844 4832.71 3479.844 4843.997 C 3479.844 4850.894 3455.389 4842.743 3429.053 4845.25 L 3407.733 4847.132 L 3405.852 4991.353 C 3403.97 5155.638 3405.225 5166.925 3425.291 5161.908 C 3472.319 5149.996 3488.622 5144.979 3514.331 5132.438 C 3543.803 5118.016 3558.851 5121.151 3551.954 5139.335 C 3545.056 5158.147 3466.048 5188.872 3425.291 5188.872 C 3407.733 5188.872 3404.598 5191.38 3404.598 5203.294 C 3404.598 5211.446 3406.48 5220.224 3408.988 5222.105 C 3414.631 5228.375 3440.967 5227.122 3473.573 5219.597 Z M 3365.721 4788.19 C 3366.975 4780.038 3365.721 4771.259 3362.586 4768.124 C 3355.688 4761.226 3258.496 4776.902 3255.988 4785.682 C 3254.107 4790.071 3266.648 4794.46 3289.849 4796.968 C 3309.914 4798.849 3330.607 4801.985 3335.622 4803.238 C 3354.435 4807.001 3363.839 4802.611 3365.721 4788.19 Z M 3500.536 4792.579 C 3518.093 4783.801 3508.061 4776.902 3469.184 4772.513 C 3449.119 4770.005 3427.798 4766.869 3422.155 4764.988 C 3409.614 4761.226 3396.447 4781.919 3402.089 4796.341 C 3405.225 4803.866 3413.377 4805.119 3447.237 4801.985 C 3470.437 4800.104 3494.265 4795.715 3500.536 4792.579 Z M 3664.196 2712.039 C 3679.871 2704.514 3693.039 2696.989 3693.039 2694.482 C 3693.039 2691.974 3701.818 2685.075 3712.478 2679.433 C 3736.305 2665.638 3788.35 2665.011 3824.719 2677.552 C 3875.51 2695.736 3885.543 2686.33 3878.018 2631.151 C 3874.882 2607.949 3867.986 2594.154 3846.665 2569.699 C 3812.178 2530.196 3775.809 2517.654 3736.933 2530.196 C 3713.732 2537.72 3711.224 2537.72 3699.936 2523.298 C 3685.515 2506.368 3683.633 2491.946 3693.666 2481.914 C 3699.31 2476.27 3694.294 2466.864 3674.855 2444.29 C 3661.06 2427.359 3649.146 2409.803 3649.146 2405.414 C 3649.146 2391.619 3630.335 2360.892 3621.555 2360.892 C 3603.371 2360.892 3511.823 2394.127 3462.914 2418.581 C 3398.328 2450.561 3380.77 2467.49 3390.803 2489.437 C 3394.566 2498.217 3401.463 2505.114 3405.225 2505.114 C 3408.988 2505.114 3430.934 2488.811 3453.508 2468.118 C 3518.72 2411.056 3541.295 2402.278 3583.306 2419.836 C 3606.507 2429.869 3630.335 2468.118 3630.335 2495.708 C 3630.335 2514.52 3614.032 2584.749 3601.49 2619.863 C 3596.474 2632.404 3592.712 2651.843 3592.712 2661.875 C 3592.712 2685.075 3570.138 2694.482 3556.97 2676.924 C 3548.818 2665.638 3551.327 2631.777 3561.987 2611.085 C 3566.376 2602.305 3576.409 2554.651 3584.56 2500.098 C 3591.459 2457.458 3558.224 2436.766 3519.348 2458.712 C 3487.995 2476.897 3457.897 2569.699 3471.692 2606.068 C 3479.844 2627.388 3472.319 2630.523 3453.508 2613.593 C 3445.356 2606.068 3442.22 2594.782 3442.22 2569.699 C 3442.22 2545.245 3439.712 2536.467 3433.442 2536.467 C 3414.003 2536.467 3414.003 2608.576 3433.442 2624.88 C 3438.459 2628.641 3442.22 2634.285 3442.22 2637.421 C 3442.22 2649.961 3486.742 2688.838 3520.601 2705.769 C 3567.631 2728.969 3619.676 2731.478 3664.196 2712.039 Z M 3866.104 2506.368 C 3876.764 2499.47 3883.662 2473.762 3874.882 2473.762 C 3860.461 2473.762 3843.531 2486.929 3843.531 2498.843 C 3843.531 2511.384 3853.564 2515.146 3866.104 2506.368 Z M 4389.688 2466.864 C 4388.433 2461.848 4387.18 2410.43 4386.552 2351.488 L 4385.299 2244.89 L 4368.996 2237.365 C 4333.88 2219.807 4326.356 2193.471 4348.93 2167.135 C 4364.605 2148.325 4365.233 2147.07 4354.573 2131.395 C 4339.524 2108.82 4340.779 2074.959 4356.454 2061.165 C 4372.758 2047.997 4374.012 2039.845 4368.368 2000.341 C 4362.725 1962.091 4345.794 1921.333 4331.373 1910.674 C 4294.377 1883.084 4290.615 1854.24 4320.713 1821.006 C 4336.388 1803.449 4339.524 1795.925 4337.016 1777.74 C 4327.61 1712.527 4310.052 1668.634 4282.463 1641.671 C 4263.651 1623.486 4263.024 1620.978 4269.295 1598.405 C 4281.835 1553.885 4278.073 1534.446 4253.618 1509.365 L 4231.045 1486.163 L 4233.553 1430.984 L 4236.062 1375.803 L 4215.368 1360.127 L 4194.05 1343.823 L 4198.439 1284.255 C 4201.575 1244.75 4200.32 1223.432 4195.931 1220.296 C 4192.795 1218.415 4051.083 1217.16 3881.781 1218.415 L 3573.901 1219.669 L 3573.901 1235.346 C 3573.901 1256.038 3541.921 1291.152 3508.061 1307.455 L 3479.844 1321.25 L 3479.844 1412.8 C 3480.47 1463.59 3482.979 1525.04 3486.114 1548.868 C 3489.876 1573.322 3495.52 1619.097 3498.654 1651.077 C 3505.553 1716.289 3509.942 1727.576 3543.176 1760.809 C 3577.035 1795.298 3610.896 1847.97 3637.86 1909.419 C 3656.044 1950.178 3661.687 2013.51 3661.687 2169.017 C 3661.687 2266.209 3664.196 2328.914 3668.585 2336.438 C 3674.855 2348.352 3675.482 2348.352 3698.055 2331.422 C 3720.002 2315.119 3740.067 2303.832 3783.961 2285.647 C 3807.162 2275.615 3931.317 2254.922 3965.804 2254.296 C 3979.599 2254.296 4001.546 2257.43 4015.341 2261.193 C 4028.51 2264.955 4052.336 2269.971 4068.639 2273.107 C 4171.476 2291.291 4323.848 2389.738 4362.098 2463.101 C 4371.504 2481.286 4394.077 2484.421 4389.688 2466.864 Z M 3388.922 2417.955 C 3393.311 2409.803 3459.151 2372.18 3482.979 2363.402 C 3552.581 2337.692 3577.663 2329.541 3587.068 2329.541 C 3592.712 2329.541 3603.999 2324.524 3611.523 2318.254 C 3622.81 2308.849 3624.691 2303.205 3620.929 2283.766 C 3618.421 2271.226 3619.676 1948.924 3601.49 1942.654 C 3597.101 1941.399 3593.338 1957.702 3590.831 1989.055 C 3588.323 2016.017 3583.306 2047.997 3578.917 2059.911 C 3560.106 2112.583 3503.671 2179.676 3454.134 2209.148 C 3434.697 2221.062 3430.306 2221.688 3424.036 2214.165 C 3415.884 2204.132 3424.664 2179.049 3436.578 2179.049 C 3444.729 2179.049 3506.179 2117.6 3519.348 2096.279 C 3542.548 2059.284 3556.343 2004.731 3553.835 1960.838 C 3550.073 1906.285 3536.904 1869.916 3476.709 1752.658 C 3454.134 1708.137 3431.561 1483.656 3437.831 1364.517 C 3440.967 1314.98 3443.475 1303.692 3455.389 1291.152 C 3462.914 1283 3474.828 1276.103 3481.725 1276.103 C 3501.79 1276.103 3536.278 1246.005 3536.278 1229.074 C 3536.278 1220.922 3533.77 1212.771 3531.262 1210.89 C 3519.975 1203.993 3499.282 1215.28 3496.147 1229.702 C 3491.131 1249.767 3479.844 1249.139 3479.844 1229.074 C 3479.844 1205.247 3447.237 1207.129 3424.036 1232.836 C 3408.988 1249.139 3404.598 1262.308 3395.819 1318.742 C 3389.549 1358.873 3385.786 1425.34 3385.786 1483.029 C 3385.786 1536.327 3382.652 1600.286 3378.889 1624.114 C 3375.127 1648.569 3370.111 1710.647 3368.23 1762.064 C 3363.839 1852.985 3363.213 1856.121 3350.046 1858.002 C 3329.98 1861.137 3326.844 1839.19 3334.996 1757.048 C 3339.385 1718.17 3345.028 1644.18 3348.164 1592.135 C 3351.927 1539.463 3356.942 1474.876 3360.078 1447.914 C 3365.721 1395.242 3364.467 1388.972 3351.927 1388.972 C 3340.013 1388.972 3335.622 1415.307 3328.725 1523.787 C 3324.963 1575.832 3319.319 1633.519 3314.93 1652.331 C 3310.541 1673.65 3264.14 1718.17 3254.734 1712.527 C 3245.329 1706.256 3118.665 1727.576 3099.853 1727.576 C 3080.415 1727.576 3016.456 1758.929 2984.477 1784.011 C 2971.31 1794.67 2958.768 1802.821 2955.633 1802.821 C 2953.125 1802.821 2946.227 1807.212 2940.583 1812.228 C 2926.162 1824.768 2887.285 1827.276 2887.285 1815.363 C 2887.285 1810.346 2892.929 1805.331 2899.826 1804.076 C 2906.723 1802.821 2917.383 1795.925 2923.654 1789.654 C 2929.924 1783.384 2937.449 1777.74 2941.211 1777.74 C 2944.972 1777.74 2946.227 1775.232 2944.346 1772.097 C 2942.465 1768.962 2928.669 1770.842 2914.248 1775.859 C 2897.318 1781.503 2771.281 1758.301 2767.519 1767.707 C 2763.756 1777.74 2720.491 1816.617 2743.064 1882.457 C 2751.215 1907.538 2717.355 1896.879 2714.22 1896.879 C 2711.084 1896.879 2708.577 1891.863 2708.577 1886.219 C 2708.577 1879.949 2704.187 1866.78 2699.17 1856.748 C 2694.155 1847.342 2689.766 1832.92 2689.766 1825.396 C 2689.766 1801.568 2669.7 1706.256 2660.294 1683.683 C 2620.163 1589.626 2590.065 1553.257 2487.856 1476.757 C 2457.759 1454.184 2432.05 1430.356 2430.168 1423.459 C 2424.525 1403.393 2427.032 1344.451 2434.557 1310.591 C 2441.454 1281.747 2443.964 1279.238 2464.029 1276.103 C 2507.295 1268.578 2538.648 1235.346 2519.835 1215.907 C 2507.921 1203.993 2481.585 1217.788 2475.943 1238.48 L 2471.553 1254.157 L 2470.926 1236.599 C 2470.299 1215.907 2458.385 1210.263 2434.557 1217.788 C 2410.103 1225.939 2389.411 1269.205 2388.783 1313.725 C 2388.783 1332.537 2384.394 1365.144 2379.378 1385.836 C 2362.447 1455.438 2364.955 1466.724 2406.967 1512.499 C 2440.828 1548.868 2463.401 1587.118 2491.618 1654.213 C 2505.413 1686.819 2512.938 1856.748 2502.279 1877.44 C 2488.484 1901.896 2482.213 1883.712 2479.078 1811.601 C 2475.943 1738.236 2465.282 1652.958 2457.759 1642.925 C 2455.25 1639.789 2450.86 1629.757 2448.353 1620.978 C 2437.693 1585.864 2354.922 1483.029 2337.366 1483.029 C 2324.824 1483.029 2335.484 1505.602 2363.073 1539.463 C 2380.004 1559.529 2401.323 1592.761 2410.103 1612.827 C 2419.509 1632.892 2430.168 1654.839 2433.931 1661.736 C 2437.693 1668.634 2442.709 1719.425 2445.845 1774.604 C 2448.353 1834.174 2453.996 1886.219 2459.639 1903.149 C 2477.823 1956.449 2494.754 1990.308 2516.701 2014.764 C 2543.037 2043.608 2544.29 2047.37 2524.852 2047.37 C 2506.04 2047.37 2464.029 1999.088 2448.353 1959.583 C 2445.845 1954.568 2441.454 1945.161 2438.32 1938.891 C 2428.287 1920.707 2419.509 1872.424 2415.746 1820.379 C 2413.865 1790.281 2409.476 1768.962 2403.832 1764.572 C 2390.664 1753.912 2387.529 1768.962 2390.664 1832.293 C 2393.172 1885.591 2401.323 1930.113 2413.865 1952.058 C 2417 1957.702 2423.898 1973.378 2430.168 1985.919 C 2442.082 2012.883 2499.77 2075.587 2521.716 2084.992 C 2529.241 2088.128 2540.529 2093.772 2545.544 2096.906 C 2558.085 2104.431 2593.827 2119.481 2620.79 2128.259 C 2665.938 2143.935 2796.99 2159.612 2886.03 2159.612 C 2923.654 2160.239 2972.563 2164.628 2995.764 2169.645 C 3039.03 2179.676 3121.173 2203.504 3130.579 2209.148 C 3139.357 2213.537 3235.296 2268.09 3277.308 2300.697 C 3319.947 2333.93 3339.385 2355.877 3360.078 2397.262 C 3373.246 2422.97 3381.397 2429.241 3388.922 2417.955 Z M 4548.331 2199.742 C 4550.212 2194.726 4550.839 2187.829 4548.331 2184.693 C 4546.45 2181.557 4508.2 2179.049 4463.68 2179.049 C 4382.79 2179.049 4382.163 2179.049 4384.044 2193.471 C 4385.925 2206.013 4390.315 2207.893 4426.683 2210.402 C 4491.897 2215.418 4544.569 2211.029 4548.331 2199.742 Z M 4510.708 2156.476 C 4527.637 2150.206 4515.097 2141.426 4488.761 2141.426 C 4475.594 2141.426 4464.306 2138.918 4464.306 2135.156 C 4464.306 2128.259 4471.203 2127.004 4501.93 2128.259 C 4528.892 2129.514 4542.687 2121.362 4537.67 2106.939 C 4533.909 2098.161 4525.13 2096.906 4466.188 2100.669 C 4428.564 2103.176 4395.332 2105.686 4390.943 2106.939 C 4385.925 2108.82 4387.807 2116.972 4396.585 2134.529 L 4409.127 2160.239 L 4454.9 2160.239 C 4479.983 2160.239 4505.064 2158.357 4510.708 2156.476 Z M 4523.876 2053.014 C 4523.876 2046.116 4510.081 2043.608 4466.188 2042.353 C 4411.635 2040.472 4407.872 2041.727 4407.872 2053.014 C 4407.872 2064.3 4412.888 2065.555 4453.647 2067.436 C 4504.437 2069.317 4523.876 2065.555 4523.876 2053.014 Z M 4456.781 2008.492 C 4461.171 2004.103 4464.306 1989.055 4464.306 1974.005 C 4464.306 1958.957 4467.442 1947.043 4471.203 1947.043 C 4474.966 1947.043 4476.847 1958.957 4475.594 1976.514 C 4474.339 2000.969 4475.594 2006.613 4484.999 2008.492 C 4495.031 2010.374 4496.913 2007.239 4495.659 1983.411 C 4493.15 1943.907 4494.405 1940.772 4510.081 1940.772 C 4530.147 1940.772 4550.839 1925.722 4539.551 1918.826 C 4530.773 1913.182 4396.585 1914.436 4387.807 1919.452 C 4385.299 1921.333 4386.552 1928.858 4391.569 1936.383 C 4396.585 1943.907 4402.229 1960.21 4404.736 1972.124 C 4407.246 1984.038 4411.635 1999.088 4415.397 2005.358 C 4421.667 2017.899 4445.495 2019.78 4456.781 2008.492 Z M 2370.598 1924.469 C 2363.701 1904.404 2356.803 1876.187 2354.295 1862.391 C 2335.484 1747.015 2299.116 1636.028 2260.866 1580.221 C 2234.53 1541.343 2171.198 1486.163 2131.067 1466.724 C 2085.293 1444.151 2021.961 1434.118 2000.642 1445.406 C 1985.592 1452.931 1988.728 1464.217 2005.658 1464.217 C 2030.739 1464.217 2119.153 1520.024 2156.149 1558.274 C 2201.923 1606.557 2257.73 1706.884 2288.455 1796.551 C 2311.03 1860.51 2324.824 1893.743 2347.398 1933.247 C 2354.922 1946.416 2377.497 1966.482 2380.631 1963.346 C 2381.886 1962.091 2376.869 1945.161 2370.598 1924.469 Z M 4575.92 1880.576 C 4591.597 1876.187 4594.104 1862.391 4579.683 1856.748 C 4574.039 1854.866 4520.741 1852.985 4460.544 1852.985 C 4365.86 1852.985 4350.811 1854.24 4347.049 1863.018 C 4345.168 1868.662 4347.049 1875.559 4352.065 1878.694 C 4362.098 1884.965 4553.347 1886.219 4575.92 1880.576 Z M 4557.109 1804.703 L 4555.228 1787.146 L 4479.983 1784.011 C 4401.602 1780.875 4378.401 1770.215 4442.36 1766.453 C 4467.442 1765.2 4476.847 1762.064 4476.847 1755.793 C 4476.847 1748.896 4469.322 1746.387 4448.63 1746.387 C 4427.938 1746.387 4420.413 1743.879 4420.413 1736.983 C 4420.413 1730.084 4427.938 1727.576 4449.258 1727.576 C 4473.085 1727.576 4477.475 1725.695 4475.594 1716.917 C 4473.713 1708.137 4467.442 1705.63 4448.63 1705.63 C 4429.819 1705.63 4423.549 1703.122 4421.667 1693.716 C 4419.786 1683.683 4422.294 1683.056 4444.241 1686.819 C 4464.933 1689.953 4470.577 1688.7 4475.594 1679.294 C 4481.236 1669.888 4488.761 1668.634 4523.876 1669.888 C 4566.515 1672.397 4589.715 1662.364 4589.715 1641.671 C 4589.715 1632.266 4561.498 1631.638 4431.072 1637.908 C 4336.388 1642.299 4335.135 1642.925 4353.946 1681.802 C 4369.622 1713.155 4376.519 1743.253 4376.519 1778.995 C 4376.519 1801.568 4379.655 1815.363 4384.671 1817.243 C 4388.433 1819.125 4429.819 1821.006 4475.594 1821.006 L 4558.99 1821.634 L 4557.109 1804.703 Z M 2931.179 1727.576 C 2960.022 1722.559 2996.391 1713.155 3044.047 1696.851 C 3094.211 1680.548 3151.271 1671.142 3199.554 1671.142 L 3252.226 1671.142 L 3255.988 1522.532 C 3259.751 1341.942 3268.529 1274.222 3289.849 1248.513 C 3298 1238.48 3303.644 1227.821 3303.016 1224.685 C 3300.508 1218.415 2573.135 1217.16 2563.102 1223.432 C 2560.594 1225.313 2558.085 1233.464 2558.085 1240.988 C 2558.085 1262.308 2536.766 1286.136 2502.906 1303.066 L 2473.434 1317.488 L 2471.553 1359.5 C 2469.671 1400.258 2476.57 1426.595 2489.737 1426.595 C 2496.635 1426.595 2552.443 1467.979 2591.946 1502.466 C 2621.417 1528.802 2665.311 1584.61 2684.122 1620.978 C 2701.68 1654.213 2748.708 1702.495 2777.551 1716.289 C 2812.039 1733.22 2873.49 1737.609 2931.179 1727.576 Z M 2356.177 1625.995 C 2357.431 1620.352 2353.669 1611.572 2348.025 1606.557 C 2343.009 1600.913 2338.619 1592.135 2338.619 1587.118 C 2338.619 1575.204 2316.672 1531.938 2294.099 1498.704 C 2275.914 1472.368 2268.389 1423.459 2269.017 1338.808 C 2269.017 1289.899 2272.152 1281.747 2294.727 1266.697 C 2317.3 1251.649 2325.452 1229.074 2312.283 1215.907 C 2301.624 1204.619 2282.813 1210.89 2253.968 1235.346 L 2235.157 1251.021 L 2233.275 1358.247 C 2232.021 1417.189 2232.649 1471.742 2234.53 1478.638 C 2236.411 1486.163 2248.952 1504.974 2262.119 1519.398 C 2275.288 1534.446 2292.845 1560.155 2301.624 1575.832 C 2332.349 1634.774 2351.161 1652.331 2356.177 1625.995 Z M 4611.662 1595.897 L 4611.662 1580.221 L 4513.216 1580.847 C 4435.463 1581.474 4414.143 1579.593 4414.143 1573.322 C 4414.143 1560.782 4433.581 1553.257 4456.781 1556.393 L 4477.475 1559.529 L 4475.594 1532.565 L 4473.713 1504.974 L 4448.63 1504.974 C 4431.072 1504.974 4423.549 1502.466 4423.549 1496.196 C 4423.549 1489.299 4444.241 1487.418 4536.417 1486.79 C 4644.896 1486.163 4649.285 1485.537 4649.285 1473.623 C 4649.285 1461.082 4644.896 1461.082 4465.561 1461.082 C 4362.725 1461.082 4279.954 1463.59 4278.073 1466.724 C 4271.176 1478.012 4295.631 1488.045 4320.713 1484.909 C 4342.66 1481.774 4345.168 1483.029 4345.168 1494.942 C 4345.168 1504.974 4341.405 1508.11 4329.491 1508.11 C 4314.443 1508.11 4313.815 1509.365 4313.815 1550.749 C 4313.815 1573.95 4316.323 1595.897 4318.832 1600.286 C 4324.476 1609.064 4379.655 1612.827 4514.47 1612.2 L 4611.662 1611.572 L 4611.662 1595.897 Z M 2334.856 1437.881 C 2341.755 1399.004 2351.161 1330.656 2351.161 1316.861 C 2351.161 1308.083 2356.803 1284.881 2363.701 1265.443 C 2377.497 1226.566 2374.987 1205.247 2358.684 1208.382 C 2350.533 1210.263 2348.025 1217.16 2348.025 1237.225 C 2348.025 1259.172 2344.263 1268.578 2326.705 1286.136 L 2306.013 1308.709 L 2306.639 1374.55 C 2307.267 1410.918 2309.149 1443.524 2311.03 1446.032 C 2317.3 1456.692 2332.349 1451.676 2334.856 1437.881 Z M 4476.847 1417.189 C 4476.847 1410.29 4464.933 1407.782 4422.294 1406.529 C 4385.299 1405.275 4367.115 1402.139 4365.233 1396.496 C 4363.352 1390.225 4392.196 1388.972 4505.692 1388.972 C 4611.662 1389.598 4649.285 1387.717 4653.048 1382.073 C 4658.691 1372.668 4654.301 1359.5 4644.268 1355.737 C 4627.338 1350.095 4293.123 1363.889 4284.971 1370.787 C 4276.193 1378.312 4273.057 1414.681 4280.582 1422.204 C 4282.463 1424.714 4327.61 1426.595 4380.91 1426.595 C 4460.544 1426.595 4476.847 1425.34 4476.847 1417.189 Z M 4686.908 1326.267 C 4688.788 1322.505 4688.788 1313.725 4686.908 1306.202 C 4682.518 1293.033 4681.891 1293.033 4510.708 1297.422 C 4342.66 1301.812 4306.918 1298.677 4316.951 1281.747 C 4319.459 1278.611 4359.59 1276.103 4406.618 1275.475 C 4546.45 1274.849 4589.089 1259.172 4459.289 1256.038 C 4420.413 1254.783 4395.958 1251.649 4396.585 1247.886 C 4397.839 1244.124 4426.057 1242.243 4471.203 1243.497 C 4530.147 1245.378 4545.195 1243.497 4551.465 1235.972 C 4555.855 1230.955 4557.736 1223.432 4555.228 1219.669 C 4550.839 1212.144 4466.188 1211.518 4334.508 1217.788 L 4244.84 1221.55 L 4244.84 1272.967 C 4244.84 1301.185 4246.721 1325.639 4248.603 1328.148 C 4255.5 1335.045 4682.518 1333.164 4686.908 1326.267 Z" style=""/>
      <path d="M 3664.822 2667.519 C 3658.552 2648.08 3674.855 2633.032 3692.413 2642.437 C 3708.716 2651.843 3709.343 2665.638 3693.666 2674.416 C 3675.482 2683.822 3669.211 2681.941 3664.822 2667.519 Z" style=""/>
      <path d="M 4385.299 1576.458 C 4380.282 1567.68 4392.196 1555.766 4400.975 1560.782 C 4411.008 1567.052 4409.127 1583.355 4399.094 1583.355 C 4394.077 1583.355 4387.807 1580.221 4385.299 1576.458 Z" style=""/>
    </g>
  </g>
</svg>