<?xml version="1.0" encoding="utf-8"?>
<svg viewBox="0 0 500 500" xmlns="http://www.w3.org/2000/svg">
  <g transform="matrix(0.19550698995590207, 0, 0, -0.19550698995590207, -33.5559921264649, 541.35400390625)" fill="#000000" stroke="none" style="">
    <g transform="matrix(0.511491, 0, 0, 0.511491, -375.319, -341.387512)" fill="#000000" stroke="none">
      <g transform="matrix(1.780837, 0, 0, 1.780837, 847.968628, 14.178501)" fill="#000000" stroke="none" style="">
        <path d="M1285 2321 c-6 -11 -32 -50 -58 -86 -26 -37 -61 -92 -76 -123 -34 -66 -53 -85 -102 -101 -44 -14 -73 -44 -88 -93 -16 -49 -63 -88 -106 -88 -59 0 -151 -96 -220 -230 -9 -18 -35 -40 -63 -54 -26 -13 -76 -47 -111 -75 -73 -60 -120 -85 -185 -102 -49 -12 -71 -29 -37 -29 26 0 124 37 226 85 59 28 98 56 152 110 40 39 73 75 73 78 0 3 9 31 20 61 26 68 91 125 158 137 58 11 78 30 112 105 26 57 32 63 76 78 26 9 49 14 51 13 2 -2 -11 -23 -28 -46 -17 -24 -27 -46 -24 -49 12 -12 51 47 83 126 34 82 135 246 146 235 16 -17 4 -65 -26 -99 -31 -35 -33 -43 -33 -108 0 -65 -4 -79 -50 -171 -54 -107 -45 -99 -204 -197 -78 -48 -121 -106 -121 -165 0 -49 -22 -79 -67 -89 -110 -24 -156 -40 -232 -79 -101 -52 -129 -71 -119 -80 3 -4 42 14 85 39 90 52 163 80 247 97 79 15 106 42 106 107 0 41 5 55 36 91 20 23 71 62 113 86 95 55 131 92 174 180 48 99 60 139 52 184 -7 42 2 67 42 115 16 19 22 35 17 50 -8 26 -6 25 51 -49 25 -33 56 -81 67 -107 11 -27 24 -48 29 -48 13 0 11 6 -11 50 -11 22 -18 40 -14 40 13 0 64 -42 76 -64 7 -13 26 -40 41 -62 76 -105 78 -111 59 -143 l-17 -30 -70 75 c-38 41 -76 74 -83 74 -7 0 -34 -33 -60 -74 -26 -42 -65 -88 -89 -105 -23 -17 -50 -42 -59 -56 -9 -14 -30 -33 -45 -41 -15 -7 -48 -44 -72 -82 -24 -37 -65 -92 -91 -122 -26 -30 -42 -56 -37 -58 15 -5 63 51 126 145 31 44 66 88 78 96 52 35 186 175 207 216 19 39 23 42 32 26 6 -10 8 -42 5 -71 -6 -60 8 -74 19 -19 6 35 3 64 -11 98 -4 9 -3 17 3 17 5 0 31 -43 57 -96 42 -85 52 -99 100 -130 45 -28 55 -40 61 -72 15 -82 89 -191 149 -219 l30 -14 -44 5 c-37 4 -53 13 -93 55 -27 27 -61 53 -76 56 -17 4 -42 27 -69 64 -23 31 -52 63 -66 70 -23 12 -29 10 -75 -25 -28 -22 -61 -46 -74 -55 -15 -10 -31 -39 -42 -75 -15 -50 -29 -70 -89 -127 -40 -38 -91 -85 -114 -104 l-43 -35 -71 17 c-114 28 -188 23 -294 -19 -124 -50 -164 -55 -276 -40 -116 16 -241 2 -224 -26 3 -5 19 -4 36 2 51 17 220 3 334 -28 79 -22 122 -28 205 -28 98 -1 109 1 173 31 38 18 79 41 92 51 23 19 25 18 127 -15 111 -36 276 -80 321 -85 26 -3 23 -6 -41 -46 l-69 -42 -55 25 c-81 37 -135 42 -191 17 -26 -11 -68 -24 -94 -27 -88 -11 -147 -28 -224 -61 -50 -22 -98 -35 -145 -39 -91 -8 -114 -13 -114 -26 0 -9 29 -7 100 7 24 5 24 5 5 -10 -27 -21 -3 -20 38 1 17 9 86 26 152 38 73 14 141 33 172 49 29 14 66 26 82 26 41 0 165 -40 155 -50 -11 -10 -170 -50 -200 -50 -13 0 -26 -5 -30 -12 -11 -17 91 -3 182 26 l76 25 62 -34 c162 -88 307 -102 701 -65 195 18 279 21 445 17 113 -3 232 -10 265 -16 89 -17 90 -17 93 -6 5 18 -141 35 -353 41 -172 5 -254 2 -455 -16 -314 -29 -459 -25 -576 15 -45 15 -99 37 -120 50 l-38 23 31 16 c29 15 35 14 112 -14 159 -58 353 -75 522 -45 78 13 271 73 312 95 9 6 17 6 17 1 0 -15 101 -35 180 -35 75 0 227 28 245 45 14 13 -14 11 -92 -7 -122 -28 -312 -16 -344 22 -8 10 -40 14 -118 14 -124 0 -143 7 -279 99 -129 86 -139 87 -227 15 -22 -18 -54 -35 -70 -39 l-30 -7 35 31 c107 94 153 104 254 58 66 -31 84 -34 66 -12 -19 23 -116 55 -168 55 -54 0 -82 -15 -164 -87 l-56 -50 -59 9 c-83 13 -221 50 -382 104 -9 3 0 14 25 33 22 16 71 60 110 98 59 56 76 79 94 130 19 53 31 69 76 103 l53 40 -15 -38 c-9 -20 -20 -41 -25 -46 -12 -13 -12 -36 0 -36 5 0 18 24 30 53 12 28 26 61 30 72 8 18 11 16 27 -20 22 -47 62 -95 81 -95 8 0 23 -16 34 -35 12 -19 25 -32 31 -29 5 3 3 16 -7 30 -28 43 6 27 54 -25 55 -59 90 -75 149 -66 42 6 45 5 107 -53 69 -65 254 -196 264 -187 6 7 -32 38 -120 97 -53 36 -72 57 -111 123 -29 49 -82 115 -136 170 -49 50 -101 108 -117 130 -15 22 -48 61 -72 86 -41 43 -44 49 -33 70 7 13 14 26 16 27 1 2 19 -9 39 -25 21 -16 51 -56 70 -94 36 -70 82 -123 115 -134 12 -4 32 -31 49 -68 45 -100 174 -206 250 -207 13 0 56 -18 97 -40 87 -49 198 -88 273 -97 67 -8 63 11 -4 20 -70 10 -193 54 -259 93 -33 19 -82 39 -110 45 -92 17 -197 108 -236 203 -18 45 -30 60 -64 78 -32 18 -49 38 -77 91 -19 37 -57 89 -83 116 l-47 48 49 21 c49 21 62 36 62 72 0 10 19 33 41 51 23 18 47 45 53 61 12 27 12 27 50 -55 27 -58 52 -96 87 -129 50 -47 50 -47 35 -77 -9 -17 -16 -39 -16 -50 0 -24 46 -81 66 -81 24 0 96 -73 118 -120 13 -29 21 -39 24 -28 2 9 -2 26 -7 37 -8 14 -8 22 1 27 13 8 41 -22 107 -114 52 -73 127 -132 225 -177 87 -40 116 -49 116 -37 0 5 -30 21 -67 35 -89 35 -185 99 -228 151 -66 79 -116 156 -103 156 25 0 57 -30 101 -98 78 -116 215 -200 404 -246 39 -10 82 -16 94 -14 30 5 18 10 -80 32 -93 21 -191 59 -261 104 -77 48 -97 67 -147 144 -45 69 -90 104 -121 94 -26 -9 -106 78 -136 147 -14 32 -20 57 -14 57 6 0 34 -24 62 -53 65 -68 116 -101 188 -121 49 -14 62 -23 88 -61 33 -48 59 -62 89 -45 16 8 27 5 57 -15 20 -14 56 -28 78 -32 30 -5 54 -19 91 -53 50 -47 84 -70 104 -70 20 0 11 19 -11 26 -12 3 -45 28 -73 55 -37 35 -64 51 -100 59 -28 7 -67 24 -88 38 -32 21 -42 24 -57 14 -27 -17 -46 -6 -81 44 -23 33 -39 46 -72 54 -73 20 -144 60 -192 111 -26 27 -60 56 -75 64 -17 9 -37 33 -48 58 -22 49 -181 239 -194 231 -4 -3 -14 -20 -22 -38 -7 -18 -34 -50 -60 -71 -28 -23 -46 -46 -46 -59 0 -30 -10 -41 -59 -66 -36 -18 -46 -19 -52 -8 -82 134 -127 193 -162 212 -25 13 -41 31 -52 60 -24 60 -85 156 -98 156 -7 0 -17 -9 -22 -19z m75 -83 c18 -32 29 -58 26 -58 -12 0 -86 108 -86 126 0 16 2 16 14 4 8 -8 28 -41 46 -72z m611 -230 c46 -56 85 -118 72 -118 -26 0 -95 77 -125 138 -51 103 -51 103 53 -20z m-361 -243 c42 -44 89 -98 104 -120 16 -22 68 -78 115 -125 47 -47 97 -105 110 -130 l25 -45 -40 35 c-21 19 -59 42 -83 50 -74 24 -145 118 -171 226 -8 34 -19 47 -62 75 -43 28 -59 47 -91 109 -34 66 -35 71 -10 40 15 -19 62 -71 103 -115z m474 35 c17 -42 45 -89 72 -119 25 -27 41 -52 36 -55 -4 -2 -20 11 -35 30 -16 19 -50 45 -77 59 -53 27 -70 58 -51 93 6 12 11 30 11 41 0 40 17 21 44 -49z m-519 -258 c-8 -8 -36 20 -51 52 -14 30 -13 29 21 -8 19 -22 33 -41 30 -44z m-1000 -37 c-17 -13 -48 -34 -70 -46 -38 -21 -39 -21 -20 -1 27 27 109 82 115 76 2 -3 -9 -16 -25 -29z m398 -266 c31 -7 57 -15 57 -19 0 -13 -96 -59 -155 -75 -76 -19 -129 -19 -238 2 l-88 17 78 27 c43 15 96 34 118 43 48 18 150 20 228 5z m827 -54 c16 -8 57 -35 92 -59 118 -82 141 -90 268 -96 l115 -5 -130 -42 c-166 -55 -249 -67 -400 -60 -112 5 -234 30 -329 67 l-29 11 39 21 c21 11 57 33 78 49 22 16 51 29 65 29 30 0 71 21 131 68 49 36 59 38 100 17z m-506 -160 c25 -10 46 -21 46 -25 0 -4 -13 -13 -28 -19 -25 -10 -34 -9 -65 9 -20 12 -58 25 -84 29 -46 8 -47 8 -23 19 32 15 94 10 154 -13z m-280 -25 c-9 -9 -156 -50 -178 -50 -23 1 27 22 96 40 86 22 95 23 82 10z"/>
        <path d="M705 800 c-107 -23 -186 -50 -277 -96 -58 -29 -92 -54 -73 -54 3 0 43 18 88 39 319 153 650 148 990 -15 96 -46 125 -44 265 15 260 110 417 129 712 86 147 -21 260 -29 260 -18 0 6 -33 13 -72 17 -40 4 -122 14 -183 23 -64 10 -167 17 -245 16 -189 -1 -310 -28 -500 -113 -48 -22 -102 -40 -119 -40 -18 0 -85 23 -149 51 -177 77 -277 100 -457 105 -122 3 -167 0 -240 -16z"/>
      </g>
    </g>
  </g>
</svg>